<?xml version="1.0" encoding="utf-8"?>
<!-- Generator: Adobe Illustrator 24.0.3, SVG Export Plug-In . SVG Version: 6.00 Build 0)  -->
<svg version="1.1" id="Layer_1" xmlns="http://www.w3.org/2000/svg" xmlns:xlink="http://www.w3.org/1999/xlink" x="0px" y="0px"
	 viewBox="0 0 28 28" style="enable-background:new 0 0 28 28;" xml:space="preserve">
<style type="text/css">
	.st0{fill:none;}
	.st1{fill:#D52028;}
	.st2{fill:#231F20;}
	.st3{fill:#D3D3D3;}
	.st4{fill:none;stroke:#000000;stroke-linecap:round;stroke-miterlimit:10;}
	.st5{fill:#E9250C;}
	.st6{fill:#A8A8A8;}
	.st7{fill:#403C3D;}
	.st8{fill:#ABABAB;}
</style>
<g>
	<g>
		<path class="st5" d="M8.54,20.27h10.92c-0.16-0.48-0.24-0.99-0.22-1.5c0.01-0.53-0.06-1.09-0.23-1.65
			c-0.56-1.85-2.15-3.29-4.06-3.62c-3.31-0.58-6.18,1.95-6.18,5.15l0,0.33C8.78,19.42,8.69,19.86,8.54,20.27z"/>
		<path class="st2" d="M22.03,21H5.66l-0.19-0.48c-0.11-2.13,0.56-4.21,1.91-5.86c0.58-0.71,0.89-1.52,0.89-2.32l0-0.33
			c0-1.7,0.75-3.3,2.05-4.39c1.3-1.09,3.02-1.55,4.72-1.25c2.08,0.37,3.83,1.92,4.45,3.97c0.18,0.6,0.26,1.21,0.25,1.81l0,0
			c-0.02,0.93,0.25,1.75,0.78,2.38c1.42,1.67,2.14,3.8,2.02,5.99V21H22.03z M6.45,20h15.09c-0.01-1.77-0.64-3.47-1.8-4.82
			c-0.7-0.82-1.05-1.87-1.02-3.05v0c0.01-0.5-0.06-1-0.21-1.49c-0.51-1.69-1.95-2.97-3.66-3.27c-1.41-0.25-2.83,0.13-3.9,1.03
			c-1.07,0.9-1.69,2.22-1.69,3.62l0,0.33c0,1.04-0.38,2.06-1.12,2.95C7.06,16.63,6.47,18.29,6.45,20z"/>
		<path class="st2" d="M14,6.94c-1.36,0-2.47-1.11-2.47-2.47S12.64,2,14,2s2.47,1.11,2.47,2.47S15.36,6.94,14,6.94z M14,3
			c-0.81,0-1.47,0.66-1.47,1.47S13.19,5.94,14,5.94s1.47-0.66,1.47-1.47S14.81,3,14,3z"/>
		<path class="st2" d="M14,26c-1.24,0-2.26-1.01-2.26-2.26v-0.5h4.51v0.5C16.26,24.99,15.24,26,14,26z M12.85,24.24
			C13.04,24.69,13.48,25,14,25s0.96-0.31,1.15-0.76H12.85z"/>
		<path class="st2" d="M23.4,24.24H4.1v-0.5C4.1,21.67,5.77,20,7.82,20h12.36c2.05,0,3.72,1.67,3.72,3.72v0.5L23.4,24.24z
			 M5.14,23.24h17.71C22.63,21.97,21.51,21,20.18,21H7.82C6.49,21,5.37,21.97,5.14,23.24z"/>
		<path class="st2" d="M10.3,12.09c-0.28,0-0.5-0.22-0.5-0.5c0-2.01,1.58-3.67,3.52-3.7c0.27,0,0.5,0.22,0.51,0.49
			s-0.22,0.5-0.49,0.51c-1.4,0.02-2.54,1.23-2.54,2.7C10.8,11.87,10.58,12.09,10.3,12.09z"/>
		<path class="st2" d="M16.82,9.89c-0.14,0-0.27-0.06-0.37-0.17c-0.69-0.77-1.34-0.83-1.37-0.83c-0.27-0.02-0.48-0.26-0.46-0.53
			c0.02-0.27,0.25-0.48,0.52-0.47c0.11,0.01,1.09,0.09,2.05,1.17c0.18,0.21,0.17,0.52-0.04,0.71C17.06,9.85,16.94,9.89,16.82,9.89z"
			/>
		<path class="st2" d="M20.14,19.53h-2.63c-0.28,0-0.5-0.22-0.5-0.5s0.22-0.5,0.5-0.5h2.26c-0.15-0.34-0.36-0.72-0.46-0.87
			c-0.14-0.24-0.07-0.54,0.17-0.69c0.23-0.14,0.54-0.07,0.69,0.17c0.02,0.03,0.5,0.83,0.68,1.43c0.07,0.22,0.03,0.46-0.11,0.65
			C20.61,19.41,20.38,19.53,20.14,19.53z M19.91,18.86h0.01H19.91z"/>
		<path class="st2" d="M16.18,19.53h-1.46c-0.28,0-0.5-0.22-0.5-0.5s0.22-0.5,0.5-0.5h1.46c0.28,0,0.5,0.22,0.5,0.5
			S16.45,19.53,16.18,19.53z"/>
	</g>
	<rect class="st0" width="28" height="28"/>
</g>
</svg>
