<?xml version="1.0" encoding="utf-8"?>
<!-- Generator: Adobe Illustrator 24.0.3, SVG Export Plug-In . SVG Version: 6.00 Build 0)  -->
<svg version="1.1" id="Layer_1" xmlns="http://www.w3.org/2000/svg" xmlns:xlink="http://www.w3.org/1999/xlink" x="0px" y="0px"
	 viewBox="0 0 28 28" style="enable-background:new 0 0 28 28;" xml:space="preserve">
<style type="text/css">
	.st0{fill:none;}
	.st1{fill:#D52028;}
	.st2{fill:#231F20;}
	.st3{fill:#D3D3D3;}
	.st4{fill:none;stroke:#000000;stroke-linecap:round;stroke-miterlimit:10;}
	.st5{fill:#E9250C;}
	.st6{fill:#A8A8A8;}
	.st7{fill:#403C3D;}
	.st8{fill:#ABABAB;}
</style>
<g>
	<g>
		<g>
			<path class="st5" d="M13.43,24.6H6.56c-2.38,0-4.31-1.93-4.31-4.31v-5.95c0-0.44,0.35-0.79,0.79-0.79h10.39
				c0.44,0,0.79,0.35,0.79,0.79v9.46C14.22,24.25,13.86,24.6,13.43,24.6z"/>
			<path class="st2" d="M23.77,21.69h-3.15c-0.28,0-0.5-0.22-0.5-0.5s0.22-0.5,0.5-0.5h2.15v-3.03c0-0.28,0.22-0.5,0.5-0.5
				s0.5,0.22,0.5,0.5V21.69z"/>
			<path class="st2" d="M18.63,21.69h-1.99c-0.28,0-0.5-0.22-0.5-0.5s0.22-0.5,0.5-0.5h1.99c0.28,0,0.5,0.22,0.5,0.5
				S18.9,21.69,18.63,21.69z"/>
			<rect x="5.96" y="5.99" class="st2" width="2.28" height="2.26"/>
			<rect x="10.2" y="9.7" class="st2" width="2.28" height="2.26"/>
			<rect x="5.96" y="9.7" class="st2" width="2.28" height="2.26"/>
			<rect x="5.96" y="13.26" class="st2" width="2.28" height="2.26"/>
			<rect x="10.2" y="13.26" class="st2" width="2.28" height="2.26"/>
			<rect x="10.2" y="16.82" class="st2" width="2.28" height="2.26"/>
			<rect x="20.94" y="9.7" class="st2" width="2.28" height="2.26"/>
			<rect x="16.69" y="9.7" class="st2" width="2.28" height="2.26"/>
			<rect x="16.69" y="13.26" class="st2" width="2.28" height="2.26"/>
			<rect x="20.94" y="13.26" class="st2" width="2.28" height="2.26"/>
			<rect x="16.69" y="16.82" class="st2" width="2.28" height="2.26"/>
			<path class="st2" d="M14.65,23.47H8.13c-2.67,0-4.85-2.16-4.85-4.82V3.4h11.87v8.56c0,0.28-0.22,0.5-0.5,0.5s-0.5-0.22-0.5-0.5
				V4.4H4.28v14.25c0,2.11,1.73,3.82,3.85,3.82h6.52c0.28,0,0.5,0.22,0.5,0.5S14.93,23.47,14.65,23.47z"/>
			<path class="st2" d="M14.65,19.58c-0.28,0-0.5-0.22-0.5-0.5v-3.56c0-0.28,0.22-0.5,0.5-0.5s0.5,0.22,0.5,0.5v3.56
				C15.15,19.35,14.93,19.58,14.65,19.58z"/>
			<path class="st2" d="M25.75,23.47h-11.1c-0.28,0-0.5-0.22-0.5-0.5s0.22-0.5,0.5-0.5h10.1V8.05h-10.1c-0.28,0-0.5-0.22-0.5-0.5
				s0.22-0.5,0.5-0.5h11.1V23.47z"/>
		</g>
		<path class="st2" d="M21.94,8.05c-0.28,0-0.5-0.22-0.5-0.5V3.9c0-0.28,0.22-0.5,0.5-0.5s0.5,0.22,0.5,0.5v3.65
			C22.44,7.83,22.22,8.05,21.94,8.05z"/>
		<path class="st2" d="M23.64,4.4h-3.4c-0.28,0-0.5-0.22-0.5-0.5s0.22-0.5,0.5-0.5h3.4c0.28,0,0.5,0.22,0.5,0.5S23.92,4.4,23.64,4.4
			z"/>
		<path class="st2" d="M23.64,6.22h-3.4c-0.28,0-0.5-0.22-0.5-0.5s0.22-0.5,0.5-0.5h3.4c0.28,0,0.5,0.22,0.5,0.5
			S23.92,6.22,23.64,6.22z"/>
	</g>
	<rect class="st0" width="28" height="28"/>
</g>
</svg>
