<?xml version="1.0" encoding="utf-8"?>
<!-- Generator: Adobe Illustrator 24.0.3, SVG Export Plug-In . SVG Version: 6.00 Build 0)  -->
<svg version="1.1" id="Layer_1" xmlns="http://www.w3.org/2000/svg" xmlns:xlink="http://www.w3.org/1999/xlink" x="0px" y="0px"
	 viewBox="0 0 28 28" style="enable-background:new 0 0 28 28;" xml:space="preserve">
<style type="text/css">
	.st0{fill:none;}
	.st1{fill:#D52028;}
	.st2{fill:#231F20;}
	.st3{fill:#D3D3D3;}
	.st4{fill:none;stroke:#000000;stroke-linecap:round;stroke-miterlimit:10;}
	.st5{fill:#E9250C;}
	.st6{fill:#A8A8A8;}
	.st7{fill:#403C3D;}
	.st8{fill:#ABABAB;}
</style>
<g>
	<g>
		<path class="st8" d="M13.1,4.12v10.69h10.6C23.71,8.91,18.96,4.12,13.1,4.12z"/>
		<path class="st7" d="M13.1,26C6.98,26,2,20.98,2,14.81C2,8.64,6.98,3.62,13.1,3.62h0.5v10.69h10.6v0.5
			C24.21,20.98,19.23,26,13.1,26z M12.6,4.63C7.26,4.9,3,9.36,3,14.81C3,20.43,7.53,25,13.1,25c5.41,0,9.83-4.3,10.09-9.69H12.6
			V4.63z"/>
		<path class="st7" d="M4.58,17.66c-0.23,0-0.43-0.15-0.49-0.38C2.85,12.11,6,6.9,11.12,5.64c0.27-0.06,0.54,0.1,0.6,0.37
			c0.07,0.27-0.1,0.54-0.37,0.6c-4.59,1.12-7.41,5.8-6.3,10.43c0.06,0.27-0.1,0.54-0.37,0.6C4.66,17.65,4.62,17.66,4.58,17.66z"/>
		<path class="st7" d="M13.1,22.38c-0.28,0-0.5-0.22-0.5-0.5v-7.06c0-0.28,0.22-0.5,0.5-0.5s0.5,0.22,0.5,0.5v7.06
			C13.6,22.15,13.38,22.38,13.1,22.38z"/>
		<path class="st7" d="M14.59,19.61c-0.28,0-0.5-0.22-0.5-0.5V16.5c0-0.28,0.22-0.5,0.5-0.5s0.5,0.22,0.5,0.5v2.61
			C15.09,19.38,14.87,19.61,14.59,19.61z"/>
		<path class="st7" d="M6.58,21.38c-0.12,0-0.24-0.04-0.34-0.13c-1.08-1-1.41-2.19-1.42-2.25c-0.07-0.27,0.09-0.54,0.36-0.61
			c0.27-0.07,0.54,0.09,0.61,0.35c0.01,0.03,0.28,0.98,1.13,1.77c0.2,0.19,0.22,0.5,0.03,0.71C6.85,21.32,6.72,21.38,6.58,21.38z"/>
		<g>
			<path class="st7" d="M26,13.69H15.49c-0.6,0-1.09-0.49-1.09-1.1V2h0.5C21.02,2,26,7.02,26,13.19V13.69z M15.4,3.01v9.58
				c0,0.05,0.04,0.1,0.09,0.1h9.5C24.74,7.47,20.57,3.27,15.4,3.01z"/>
			<path class="st7" d="M14.9,11.7c-0.13,0-0.27-0.05-0.37-0.16c-0.19-0.2-0.17-0.52,0.03-0.71l6.66-6.12
				c0.2-0.19,0.52-0.17,0.71,0.03s0.17,0.52-0.03,0.71l-6.66,6.12C15.14,11.66,15.02,11.7,14.9,11.7z"/>
			<path class="st7" d="M14.9,7.72c-0.13,0-0.27-0.05-0.37-0.16c-0.19-0.2-0.17-0.52,0.03-0.71l4.18-3.84
				c0.2-0.19,0.52-0.17,0.71,0.03s0.17,0.52-0.03,0.71l-4.18,3.84C15.14,7.68,15.02,7.72,14.9,7.72z"/>
			<path class="st7" d="M17,13.59c-0.13,0-0.27-0.05-0.37-0.16c-0.19-0.2-0.17-0.52,0.03-0.71l6.38-5.87
				c0.2-0.19,0.52-0.17,0.71,0.03s0.17,0.52-0.03,0.71l-6.38,5.87C17.24,13.54,17.12,13.59,17,13.59z"/>
			<path class="st7" d="M20.94,13.57c-0.13,0-0.27-0.05-0.37-0.16c-0.19-0.2-0.17-0.52,0.03-0.71l3.78-3.47
				c0.2-0.19,0.52-0.17,0.71,0.03c0.19,0.2,0.17,0.52-0.03,0.71l-3.78,3.47C21.18,13.52,21.06,13.57,20.94,13.57z"/>
		</g>
	</g>
	<rect class="st0" width="28" height="28"/>
</g>
</svg>
