<?xml version="1.0" encoding="utf-8"?>
<!-- Generator: Adobe Illustrator 24.0.3, SVG Export Plug-In . SVG Version: 6.00 Build 0)  -->
<svg version="1.1" id="Layer_1" xmlns="http://www.w3.org/2000/svg" xmlns:xlink="http://www.w3.org/1999/xlink" x="0px" y="0px"
	 viewBox="0 0 28 28" style="enable-background:new 0 0 28 28;" xml:space="preserve">
<style type="text/css">
	.st0{fill:none;}
	.st1{fill:#D52028;}
	.st2{fill:#231F20;}
	.st3{fill:#D3D3D3;}
	.st4{fill:none;stroke:#000000;stroke-linecap:round;stroke-miterlimit:10;}
	.st5{fill:#E9250C;}
	.st6{fill:#A8A8A8;}
	.st7{fill:#403C3D;}
	.st8{fill:#ABABAB;}
</style>
<g>
	<rect y="-113.8" class="st0" width="28" height="28"/>
	<g>
		<path class="st1" d="M18.57-95.66H9.43v-5.54c0-0.41,0.18-0.81,0.49-1.09l2.7-2.46c0.78-0.71,2-0.71,2.78,0l2.7,2.46
			c0.31,0.29,0.49,0.68,0.49,1.09V-95.66z"/>
		<path class="st2" d="M21.85-88.3H6.15c-0.81,0-1.47-0.65-1.47-1.45v-9.04h-1.2c-0.62,0-1.16-0.37-1.38-0.93
			c-0.22-0.56-0.07-1.18,0.38-1.58l3.71-3.39v-3.9c0-0.57,0.47-1.03,1.04-1.03h1.54c0.57,0,1.04,0.46,1.04,1.03v0.59l3.19-2.91
			c0.56-0.51,1.44-0.51,2,0l10.52,9.6c0.44,0.4,0.59,1.03,0.38,1.58c-0.22,0.57-0.76,0.93-1.38,0.93h-1.2v9.04
			C23.33-88.95,22.67-88.3,21.85-88.3z M7.23-108.62l-0.04,4.37l-4.04,3.68c-0.2,0.19-0.15,0.4-0.12,0.48
			c0.03,0.07,0.14,0.3,0.44,0.3h2.2v10.04c0,0.25,0.21,0.45,0.47,0.45h15.71c0.26,0,0.47-0.2,0.47-0.45v-10.04h2.2
			c0.31,0,0.42-0.23,0.44-0.3c0.03-0.08,0.09-0.3-0.12-0.48l-10.52-9.6c-0.18-0.17-0.47-0.17-0.65,0l-4.87,4.44v-2.86L7.23-108.62z
			 M19.07-92.65H8.93v-6.91l5.07-4.63l5.07,4.63V-92.65z M9.93-93.65h8.15v-5.47L14-102.84l-4.07,3.72V-93.65z"/>
		<path class="st2" d="M14-90.32H6.66v-3.61c0-0.28,0.22-0.5,0.5-0.5s0.5,0.22,0.5,0.5v2.61H14c0.28,0,0.5,0.22,0.5,0.5
			S14.28-90.32,14-90.32z"/>
		<path class="st2" d="M19.18-90.32h-2.33c-0.28,0-0.5-0.22-0.5-0.5s0.22-0.5,0.5-0.5h2.33c0.28,0,0.5,0.22,0.5,0.5
			S19.45-90.32,19.18-90.32z"/>
	</g>
</g>
<path class="st3" d="M-175.56,70.75L-175.56,70.75l0-13.82c0-1.57,1.27-2.84,2.84-2.84h1.61v12.21
	C-171.1,68.75-173.1,70.75-175.56,70.75z"/>
<rect x="-167.91" y="66.15" class="st3" width="2.7" height="2.7"/>
<g>
	<path class="st4" d="M-198.56,20.16c0-0.93,0.76-1.69,1.69-1.69h15.2v7.47"/>
	<path class="st4" d="M-181.66,38.79c0,0.93-0.76,1.69-1.69,1.69h-15.2V23.66"/>
	<line class="st4" x1="-181.66" y1="27.68" x2="-181.66" y2="36.86"/>
	<polyline class="st4" points="-181.66,20.48 -178.68,20.48 -178.68,37.75 	"/>
	<path class="st4" d="M-195.58,40.48v2.01h15.26c0.91,0,1.64-0.73,1.64-1.64"/>
	<path class="st4" d="M-192.45,42.71v2.01h15.26c0.91,0,1.64-0.73,1.64-1.64V22.72h-2.98"/>
	<line class="st4" x1="-195.63" y1="21.39" x2="-184.59" y2="21.39"/>
	<line class="st4" x1="-195.63" y1="23.66" x2="-190.11" y2="23.66"/>
	<line class="st4" x1="-195.63" y1="33.24" x2="-184.59" y2="33.24"/>
	<line class="st4" x1="-195.63" y1="35.51" x2="-190.11" y2="35.51"/>
	<line class="st4" x1="-195.63" y1="27.47" x2="-184.59" y2="27.47"/>
	<line class="st4" x1="-195.63" y1="29.73" x2="-190.11" y2="29.73"/>
</g>
<g>
	<g>
		<g>
			<ellipse class="st1" cx="52" cy="-100.59" rx="4.11" ry="4.3"/>
			<path class="st2" d="M52-87.69l-0.36-0.36c-0.29-0.29-7.05-7.23-7.57-14.79c-0.03-0.28-0.05-0.58-0.05-0.89
				c0-4.5,3.58-8.17,7.98-8.17s7.98,3.66,7.98,8.17c0,0.31-0.02,0.62-0.05,0.92c-0.53,7.42-7.28,14.46-7.56,14.76L52-87.69z
				 M52-110.9c-3.85,0-6.98,3.21-6.98,7.17c0,0.27,0.02,0.54,0.05,0.8C45.5-96.7,50.59-90.69,52-89.14
				c1.4-1.57,6.49-7.65,6.93-13.77c0.03-0.29,0.05-0.56,0.05-0.83C58.98-107.69,55.85-110.9,52-110.9z M52-98.55
				c-2.59,0-4.69-2.15-4.69-4.8s2.1-4.8,4.69-4.8s4.69,2.15,4.69,4.8S54.59-98.55,52-98.55z M52-107.15c-2.04,0-3.69,1.7-3.69,3.8
				c0,2.09,1.66,3.8,3.69,3.8s3.69-1.7,3.69-3.8C55.69-105.45,54.04-107.15,52-107.15z"/>
		</g>
		<path class="st2" d="M57.91-103.59c-0.25,0-0.47-0.19-0.5-0.45c-0.15-1.52-0.88-2.85-2.03-3.76c-1.14-0.9-2.61-1.3-4.14-1.15
			c-0.27,0.02-0.52-0.17-0.55-0.45c-0.03-0.27,0.17-0.52,0.45-0.55c1.78-0.18,3.51,0.3,4.85,1.36c1.37,1.08,2.23,2.66,2.41,4.45
			c0.03,0.27-0.17,0.52-0.45,0.55C57.94-103.59,57.92-103.59,57.91-103.59z"/>
		<path class="st2" d="M46.61-105.43c-0.05,0-0.11-0.01-0.16-0.03c-0.26-0.09-0.4-0.37-0.31-0.63c0.72-2.15,2.41-2.99,2.49-3.02
			c0.25-0.12,0.55-0.02,0.67,0.23c0.12,0.25,0.02,0.55-0.23,0.67c-0.03,0.01-1.39,0.71-1.97,2.44
			C47.02-105.56,46.82-105.43,46.61-105.43z"/>
	</g>
	<rect x="38" y="-113.8" class="st0" width="28" height="28"/>
</g>
<g>
	<g>
		<path class="st5" d="M11.39-62.59h6.8c1.12,0,2.03,0.91,2.03,2.03v6.37H12.2c-1.57,0-2.85-1.27-2.85-2.85v-3.53
			C9.35-61.68,10.26-62.59,11.39-62.59z"/>
		<path class="st2" d="M21.97-50H7.61c-0.87,0-1.58-0.71-1.58-1.58v-6.02c0-2.32,1.88-4.2,4.2-4.2h7.55c2.32,0,4.2,1.89,4.2,4.2V-50
			z M10.23-60.8c-1.76,0-3.2,1.44-3.2,3.2v6.02c0,0.32,0.26,0.58,0.58,0.58h13.37v-6.6c0-1.77-1.44-3.2-3.2-3.2H10.23z"/>
		<path class="st2" d="M14-63.17c-2.55,0-4.63-2.52-4.63-5.62v-0.5h9.27v0.5C18.63-65.69,16.55-63.17,14-63.17z M10.39-68.29
			c0.2,2.31,1.74,4.12,3.61,4.12s3.42-1.81,3.61-4.12H10.39z"/>
		<path class="st2" d="M18.13-68.29H9.87c-0.22,0-0.41-0.14-0.48-0.34c-0.02-0.07-0.57-1.79,0.44-3.08c0.77-0.98,2.18-1.41,4.2-1.27
			c3.7,0.26,4.34-0.33,4.42-0.43c-0.04-0.25,0.11-0.49,0.35-0.57c0.25-0.07,0.52,0.06,0.61,0.3c0.02,0.04,0.03,0.09,0.04,0.15
			c0.13,0.62,0.69,3.56-0.24,4.72C18.94-68.47,18.57-68.29,18.13-68.29z M10.27-69.29h7.87c0.13,0,0.22-0.04,0.3-0.14
			c0.37-0.46,0.35-1.76,0.2-2.91c-0.86,0.4-2.41,0.52-4.67,0.36c-1.65-0.12-2.8,0.19-3.34,0.88C10.16-70.51,10.2-69.73,10.27-69.29z
			"/>
		<path class="st2" d="M11.8-52.47H9.35c-0.28,0-0.5-0.22-0.5-0.5v-4.56c0-0.28,0.22-0.5,0.5-0.5s0.5,0.22,0.5,0.5v4.06h1.95
			c0.28,0,0.5,0.22,0.5,0.5S12.08-52.47,11.8-52.47z"/>
		<path class="st2" d="M14.76-52.47h-1.19c-0.28,0-0.5-0.22-0.5-0.5s0.22-0.5,0.5-0.5h1.19c0.28,0,0.5,0.22,0.5,0.5
			S15.04-52.47,14.76-52.47z"/>
	</g>
	<rect y="-76" class="st0" width="28" height="28"/>
</g>
<g>
	<g>
		<g>
			<path class="st5" d="M51.43-51.4h-6.87c-2.38,0-4.31-1.93-4.31-4.31v-5.95c0-0.44,0.35-0.79,0.79-0.79h10.39
				c0.44,0,0.79,0.35,0.79,0.79v9.46C52.22-51.75,51.86-51.4,51.43-51.4z"/>
			<path class="st2" d="M61.77-54.31h-3.15c-0.28,0-0.5-0.22-0.5-0.5s0.22-0.5,0.5-0.5h2.15v-3.03c0-0.28,0.22-0.5,0.5-0.5
				s0.5,0.22,0.5,0.5V-54.31z"/>
			<path class="st2" d="M56.63-54.31h-1.99c-0.28,0-0.5-0.22-0.5-0.5s0.22-0.5,0.5-0.5h1.99c0.28,0,0.5,0.22,0.5,0.5
				S56.9-54.31,56.63-54.31z"/>
			<rect x="43.96" y="-70.01" class="st2" width="2.28" height="2.26"/>
			<rect x="48.2" y="-66.3" class="st2" width="2.28" height="2.26"/>
			<rect x="43.96" y="-66.3" class="st2" width="2.28" height="2.26"/>
			<rect x="43.96" y="-62.74" class="st2" width="2.28" height="2.26"/>
			<rect x="48.2" y="-62.74" class="st2" width="2.28" height="2.26"/>
			<rect x="48.2" y="-59.18" class="st2" width="2.28" height="2.26"/>
			<rect x="58.94" y="-66.3" class="st2" width="2.28" height="2.26"/>
			<rect x="54.69" y="-66.3" class="st2" width="2.28" height="2.26"/>
			<rect x="54.69" y="-62.74" class="st2" width="2.28" height="2.26"/>
			<rect x="58.94" y="-62.74" class="st2" width="2.28" height="2.26"/>
			<rect x="54.69" y="-59.18" class="st2" width="2.28" height="2.26"/>
			<path class="st2" d="M52.65-52.53h-6.52c-2.67,0-4.85-2.16-4.85-4.82V-72.6h11.87v8.56c0,0.28-0.22,0.5-0.5,0.5
				s-0.5-0.22-0.5-0.5v-7.56h-9.87v14.25c0,2.11,1.73,3.82,3.85,3.82h6.52c0.28,0,0.5,0.22,0.5,0.5S52.93-52.53,52.65-52.53z"/>
			<path class="st2" d="M52.65-56.42c-0.28,0-0.5-0.22-0.5-0.5v-3.56c0-0.28,0.22-0.5,0.5-0.5s0.5,0.22,0.5,0.5v3.56
				C53.15-56.65,52.93-56.42,52.65-56.42z"/>
			<path class="st2" d="M63.75-52.53h-11.1c-0.28,0-0.5-0.22-0.5-0.5s0.22-0.5,0.5-0.5h10.1v-14.42h-10.1c-0.28,0-0.5-0.22-0.5-0.5
				s0.22-0.5,0.5-0.5h11.1V-52.53z"/>
		</g>
		<path class="st2" d="M59.94-67.95c-0.28,0-0.5-0.22-0.5-0.5v-3.65c0-0.28,0.22-0.5,0.5-0.5s0.5,0.22,0.5,0.5v3.65
			C60.44-68.17,60.22-67.95,59.94-67.95z"/>
		<path class="st2" d="M61.64-71.6h-3.4c-0.28,0-0.5-0.22-0.5-0.5s0.22-0.5,0.5-0.5h3.4c0.28,0,0.5,0.22,0.5,0.5
			S61.92-71.6,61.64-71.6z"/>
		<path class="st2" d="M61.64-69.78h-3.4c-0.28,0-0.5-0.22-0.5-0.5s0.22-0.5,0.5-0.5h3.4c0.28,0,0.5,0.22,0.5,0.5
			S61.92-69.78,61.64-69.78z"/>
	</g>
	<rect x="38" y="-76" class="st0" width="28" height="28"/>
</g>
<g>
	<g>
		<path class="st5" d="M48.81-18.17h10.3c1.75,0,3.17-1.42,3.17-3.17v-6.41c0-0.74-0.6-1.34-1.34-1.34h-9.85
			c-1.75,0-3.17,1.42-3.17,3.17v6.85C47.91-18.57,48.31-18.17,48.81-18.17z"/>
		<path class="st2" d="M41.04-15.64c-0.14,0-0.28-0.03-0.42-0.09C40.24-15.9,40-16.26,40-16.68v-15.28c0-0.96,0.78-1.74,1.73-1.74
			H55.6c3.19,0,5.79,2.62,5.79,5.83v6.71c0,0.96-0.78,1.74-1.73,1.74H45.59l-3.87,3.5C41.53-15.74,41.29-15.64,41.04-15.64z
			 M41.73-32.7c-0.4,0-0.73,0.33-0.73,0.74v15.28l4.2-3.73h14.46c0.4,0,0.73-0.33,0.73-0.74v-6.71c0-2.67-2.15-4.83-4.79-4.83H41.73
			z"/>
		<path class="st2" d="M63.03-14.3c-0.24,0-0.47-0.09-0.65-0.26l-3.4-3.08H46.53c-0.88,0-1.59-0.72-1.59-1.6v-0.6
			c0-0.28,0.22-0.5,0.5-0.5s0.5,0.22,0.5,0.5v0.6c0,0.33,0.26,0.6,0.59,0.6h12.82l3.69,3.34L63-18.14V-28.8
			c0-0.33-0.27-0.6-0.59-0.6h-1.6c-0.28,0-0.5-0.22-0.5-0.5s0.22-0.5,0.5-0.5h1.6c0.88,0,1.59,0.72,1.59,1.6v13.53
			c0,0.39-0.22,0.73-0.58,0.89C63.29-14.33,63.16-14.3,63.03-14.3z"/>
		<g>
			<path class="st2" d="M50.7-24.66c-0.98,0-1.77-0.8-1.77-1.78s0.79-1.78,1.77-1.78c0.98,0,1.77,0.8,1.77,1.78
				S51.67-24.66,50.7-24.66z M50.7-27.22c-0.43,0-0.77,0.35-0.77,0.78s0.35,0.78,0.77,0.78c0.43,0,0.77-0.35,0.77-0.78
				S51.12-27.22,50.7-27.22z"/>
			<path class="st2" d="M45.65-24.66c-0.98,0-1.77-0.8-1.77-1.78s0.79-1.78,1.77-1.78s1.77,0.8,1.77,1.78S46.63-24.66,45.65-24.66z
				 M45.65-27.22c-0.43,0-0.77,0.35-0.77,0.78s0.35,0.78,0.77,0.78s0.77-0.35,0.77-0.78S46.08-27.22,45.65-27.22z"/>
			<path class="st2" d="M55.74-24.66c-0.98,0-1.77-0.8-1.77-1.78s0.79-1.78,1.77-1.78s1.77,0.8,1.77,1.78S56.72-24.66,55.74-24.66z
				 M55.74-27.22c-0.43,0-0.77,0.35-0.77,0.78s0.35,0.78,0.77,0.78s0.77-0.35,0.77-0.78S56.17-27.22,55.74-27.22z"/>
		</g>
		<path class="st2" d="M59.71-21.13H55.1c-0.28,0-0.5-0.22-0.5-0.5s0.22-0.5,0.5-0.5h3.62v-1.33c0-0.28,0.22-0.5,0.5-0.5
			c0.28,0,0.5,0.22,0.5,0.5V-21.13z"/>
		<path class="st2" d="M53.2-21.13h-1.84c-0.28,0-0.5-0.22-0.5-0.5s0.22-0.5,0.5-0.5h1.84c0.28,0,0.5,0.22,0.5,0.5
			S53.48-21.13,53.2-21.13z"/>
		<path class="st2" d="M46.92-31.12h-4.74c-0.28,0-0.5-0.22-0.5-0.5s0.22-0.5,0.5-0.5h4.74c0.28,0,0.5,0.22,0.5,0.5
			S47.2-31.12,46.92-31.12z"/>
	</g>
	<rect x="38" y="-38" class="st0" width="28" height="28"/>
</g>
<g>
	<g>
		<path class="st5" d="M18.73-18.06h-8.03c-0.7,0-1.32-0.57-1.51-1.39l-1.74-7.66h14.53l-1.74,7.66
			C20.05-18.63,19.43-18.06,18.73-18.06z"/>
		<path class="st2" d="M20.58-13.72H3.51C2.68-13.72,2-14.4,2-15.23v-9.01c0-2.99,2.43-5.42,5.42-5.42h17.23
			c0.75,0,1.36,0.61,1.36,1.36v9.17C26-16.15,23.57-13.72,20.58-13.72z M7.42-28.66C4.98-28.66,3-26.68,3-24.25v9.01
			c0,0.28,0.23,0.51,0.51,0.51h17.08c2.44,0,4.42-1.98,4.42-4.42v-9.17c0-0.2-0.16-0.36-0.36-0.36H7.42z"/>
		<path class="st2" d="M18.01-21.06h-7.12c-0.85,0-1.6-0.63-1.82-1.53l-1.69-6.94h14.15l-1.69,6.94
			C19.61-21.69,18.86-21.06,18.01-21.06z M8.65-28.53l1.39,5.7c0.11,0.45,0.46,0.77,0.85,0.77h7.12c0.39,0,0.74-0.32,0.85-0.77
			l1.39-5.7H8.65z"/>
		<path class="st2" d="M16.36-15.95h-5.48v-3.4h7.29v1.59C18.17-16.76,17.35-15.95,16.36-15.95z M11.88-16.95h4.48
			c0.44,0,0.81-0.36,0.81-0.81v-0.59h-5.29V-16.95z"/>
		<path class="st2" d="M20.83-28.66h-3.82l-0.69-1.94c-0.08-0.22-0.28-0.36-0.5-0.36h-2.63c-0.22,0-0.42,0.15-0.5,0.36l-0.68,1.94
			H8.21l1.38-3.92c0.36-1.01,1.31-1.7,2.36-1.7h5.13c1.06,0,2.01,0.68,2.36,1.7L20.83-28.66z M17.72-29.66h1.7l-0.91-2.58
			c-0.22-0.61-0.79-1.03-1.42-1.03h-5.13c-0.63,0-1.2,0.41-1.42,1.03l-0.91,2.58h1.7l0.45-1.28c0.22-0.62,0.8-1.03,1.44-1.03h2.63
			c0.64,0,1.22,0.41,1.44,1.03L17.72-29.66z"/>
		<path class="st2" d="M4.25-19.19c-0.28,0-0.5-0.22-0.5-0.5v-2c0-0.28,0.22-0.5,0.5-0.5s0.5,0.22,0.5,0.5v2
			C4.75-19.42,4.53-19.19,4.25-19.19z"/>
		<path class="st2" d="M4.25-23.41c-0.28,0-0.5-0.22-0.5-0.5c0-1.59,0.89-3,2.17-3.43c0.26-0.09,0.54,0.05,0.63,0.32
			s-0.05,0.54-0.32,0.63c-0.88,0.29-1.49,1.31-1.49,2.48C4.75-23.64,4.53-23.41,4.25-23.41z"/>
		<path class="st2" d="M23.66-21.58c-0.28,0-0.5-0.22-0.5-0.5v-5.48c0-0.28,0.22-0.5,0.5-0.5s0.5,0.22,0.5,0.5v5.48
			C24.16-21.8,23.94-21.58,23.66-21.58z"/>
	</g>
	<rect y="-38" class="st0" width="28" height="28"/>
</g>
<g>
	<g>
		<path class="st5" d="M13.1,4.12v10.69h10.6C23.71,8.91,18.96,4.12,13.1,4.12z"/>
		<path class="st2" d="M13.1,26C6.98,26,2,20.98,2,14.81C2,8.64,6.98,3.62,13.1,3.62h0.5v10.69h10.6v0.5
			C24.21,20.98,19.23,26,13.1,26z M12.6,4.63C7.26,4.9,3,9.36,3,14.81C3,20.43,7.53,25,13.1,25c5.41,0,9.83-4.3,10.09-9.69H12.6
			V4.63z"/>
		<path class="st2" d="M4.58,17.66c-0.23,0-0.43-0.15-0.49-0.38C2.85,12.11,6,6.9,11.12,5.64c0.27-0.06,0.54,0.1,0.6,0.37
			c0.07,0.27-0.1,0.54-0.37,0.6c-4.59,1.12-7.41,5.8-6.3,10.43c0.06,0.27-0.1,0.54-0.37,0.6C4.66,17.65,4.62,17.66,4.58,17.66z"/>
		<path class="st2" d="M13.1,22.38c-0.28,0-0.5-0.22-0.5-0.5v-7.06c0-0.28,0.22-0.5,0.5-0.5s0.5,0.22,0.5,0.5v7.06
			C13.6,22.15,13.38,22.38,13.1,22.38z"/>
		<path class="st2" d="M14.59,19.61c-0.28,0-0.5-0.22-0.5-0.5V16.5c0-0.28,0.22-0.5,0.5-0.5s0.5,0.22,0.5,0.5v2.61
			C15.09,19.38,14.87,19.61,14.59,19.61z"/>
		<path class="st2" d="M6.58,21.38c-0.12,0-0.24-0.04-0.34-0.13c-1.08-1-1.41-2.19-1.42-2.25c-0.07-0.27,0.09-0.54,0.36-0.61
			c0.27-0.07,0.54,0.09,0.61,0.35c0.01,0.03,0.28,0.98,1.13,1.77c0.2,0.19,0.22,0.5,0.03,0.71C6.85,21.32,6.72,21.38,6.58,21.38z"/>
		<g>
			<path class="st2" d="M26,13.69H15.49c-0.6,0-1.09-0.49-1.09-1.1V2h0.5C21.02,2,26,7.02,26,13.19V13.69z M15.4,3.01v9.58
				c0,0.05,0.04,0.1,0.09,0.1h9.5C24.74,7.47,20.57,3.27,15.4,3.01z"/>
			<path class="st2" d="M14.9,11.7c-0.13,0-0.27-0.05-0.37-0.16c-0.19-0.2-0.17-0.52,0.03-0.71l6.66-6.12
				c0.2-0.19,0.52-0.17,0.71,0.03s0.17,0.52-0.03,0.71l-6.66,6.12C15.14,11.66,15.02,11.7,14.9,11.7z"/>
			<path class="st2" d="M14.9,7.72c-0.13,0-0.27-0.05-0.37-0.16c-0.19-0.2-0.17-0.52,0.03-0.71l4.18-3.84
				c0.2-0.19,0.52-0.17,0.71,0.03s0.17,0.52-0.03,0.71l-4.18,3.84C15.14,7.68,15.02,7.72,14.9,7.72z"/>
			<path class="st2" d="M17,13.59c-0.13,0-0.27-0.05-0.37-0.16c-0.19-0.2-0.17-0.52,0.03-0.71l6.38-5.87
				c0.2-0.19,0.52-0.17,0.71,0.03s0.17,0.52-0.03,0.71l-6.38,5.87C17.24,13.54,17.12,13.59,17,13.59z"/>
			<path class="st2" d="M20.94,13.57c-0.13,0-0.27-0.05-0.37-0.16c-0.19-0.2-0.17-0.52,0.03-0.71l3.78-3.47
				c0.2-0.19,0.52-0.17,0.71,0.03c0.19,0.2,0.17,0.52-0.03,0.71l-3.78,3.47C21.18,13.52,21.06,13.57,20.94,13.57z"/>
		</g>
	</g>
	<rect class="st0" width="28" height="28"/>
</g>
<g>
	<g>
		<path class="st5" d="M46.54,20.27h10.92c-0.16-0.48-0.24-0.99-0.22-1.5c0.01-0.53-0.06-1.09-0.23-1.65
			c-0.56-1.85-2.15-3.29-4.06-3.62c-3.31-0.58-6.18,1.95-6.18,5.15l0,0.33C46.78,19.42,46.69,19.86,46.54,20.27z"/>
		<path class="st2" d="M60.03,21H43.66l-0.19-0.48c-0.11-2.13,0.56-4.21,1.91-5.86c0.58-0.71,0.89-1.52,0.89-2.32l0-0.33
			c0-1.7,0.75-3.3,2.05-4.39c1.3-1.09,3.02-1.55,4.72-1.25c2.08,0.37,3.83,1.92,4.45,3.97c0.18,0.6,0.26,1.21,0.25,1.81l0,0
			c-0.02,0.93,0.25,1.75,0.78,2.38c1.42,1.67,2.14,3.8,2.02,5.99V21H60.03z M44.45,20h15.09c-0.01-1.77-0.64-3.47-1.8-4.82
			c-0.7-0.82-1.05-1.87-1.02-3.05v0c0.01-0.5-0.06-1-0.21-1.49c-0.51-1.69-1.95-2.97-3.66-3.27c-1.41-0.25-2.83,0.13-3.9,1.03
			c-1.07,0.9-1.69,2.22-1.69,3.62l0,0.33c0,1.04-0.38,2.06-1.12,2.95C45.06,16.63,44.47,18.29,44.45,20z"/>
		<path class="st2" d="M52,6.94c-1.36,0-2.47-1.11-2.47-2.47S50.64,2,52,2s2.47,1.11,2.47,2.47S53.36,6.94,52,6.94z M52,3
			c-0.81,0-1.47,0.66-1.47,1.47S51.19,5.94,52,5.94s1.47-0.66,1.47-1.47S52.81,3,52,3z"/>
		<path class="st2" d="M52,26c-1.24,0-2.26-1.01-2.26-2.26v-0.5h4.51v0.5C54.26,24.99,53.24,26,52,26z M50.85,24.24
			C51.04,24.69,51.48,25,52,25s0.96-0.31,1.15-0.76H50.85z"/>
		<path class="st2" d="M61.4,24.24H42.1v-0.5c0-2.07,1.67-3.74,3.72-3.74h12.36c2.05,0,3.72,1.67,3.72,3.72v0.5L61.4,24.24z
			 M43.14,23.24h17.71C60.63,21.97,59.51,21,58.18,21H45.82C44.49,21,43.37,21.97,43.14,23.24z"/>
		<path class="st2" d="M48.3,12.09c-0.28,0-0.5-0.22-0.5-0.5c0-2.01,1.58-3.67,3.52-3.7c0.27,0,0.5,0.22,0.51,0.49
			s-0.22,0.5-0.49,0.51c-1.4,0.02-2.54,1.23-2.54,2.7C48.8,11.87,48.58,12.09,48.3,12.09z"/>
		<path class="st2" d="M54.82,9.89c-0.14,0-0.27-0.06-0.37-0.17c-0.69-0.77-1.34-0.83-1.37-0.83c-0.27-0.02-0.48-0.26-0.46-0.53
			c0.02-0.27,0.25-0.48,0.52-0.47c0.11,0.01,1.09,0.09,2.05,1.17c0.18,0.21,0.17,0.52-0.04,0.71C55.06,9.85,54.94,9.89,54.82,9.89z"
			/>
		<path class="st2" d="M58.14,19.53h-2.63c-0.28,0-0.5-0.22-0.5-0.5s0.22-0.5,0.5-0.5h2.26c-0.15-0.34-0.36-0.72-0.46-0.87
			c-0.14-0.24-0.07-0.54,0.17-0.69c0.23-0.14,0.54-0.07,0.69,0.17c0.02,0.03,0.5,0.83,0.68,1.43c0.07,0.22,0.03,0.46-0.11,0.65
			C58.61,19.41,58.38,19.53,58.14,19.53z M57.91,18.86h0.01H57.91z"/>
		<path class="st2" d="M54.18,19.53h-1.46c-0.28,0-0.5-0.22-0.5-0.5s0.22-0.5,0.5-0.5h1.46c0.28,0,0.5,0.22,0.5,0.5
			S54.45,19.53,54.18,19.53z"/>
	</g>
	<rect x="38" class="st0" width="28" height="28"/>
</g>
<g>
	<g>
		<path class="st5" d="M11,63.82c-0.72-0.53-0.95-2.03-0.22-3.67c0.73-1.63,1.29-2.79,1.62-3.46c0.12-0.24,0.47-0.22,0.56,0.04
			c0.22,0.62,0.61,1.54,1.24,2.4c0.81,1.11,1.33,2.45,1.07,3.69c-0.14,0.66-0.67,1.15-1.32,1.33C13.16,64.38,11.97,64.52,11,63.82z"
			/>
		<g>
			<path d="M10.11,65.17c-0.11,0-0.23-0.03-0.34-0.08l0,0c-1.4-0.74-2.48-1.92-3.23-3.49c-0.46-0.96-1.7-4.45,1.5-8.9
				c3.26-4.43,3.38-8.1,3.28-9.47c-0.02-0.28,0.13-0.54,0.37-0.68c0.25-0.13,0.55-0.11,0.77,0.07c0.45,0.35,0.87,0.78,1.24,1.26
				c1.25,1.63,1.94,3.75,1.94,5.96c0,1.11,0.11,2.05,0.3,2.56c0.07,0.18,0.13,0.3,0.18,0.37c0.11-0.2,0.28-0.75,0.21-1.86
				c-0.02-0.29,0.14-0.55,0.39-0.68c0.26-0.13,0.56-0.09,0.78,0.1c0.64,0.56,1.56,1.72,2.31,4.03c0.65,2.04,0.7,3.54,0.63,4.44
				c-0.22,3.62-2.27,5.4-3.94,6.25c-0.29,0.14-0.63,0.09-0.84-0.15c-0.22-0.23-0.25-0.58-0.08-0.85c1.49-2.42-0.19-5.19-0.98-6.27
				c-0.94-1.29-1.54-2.68-1.87-3.61c-0.45,1-1.26,2.68-2.31,5.02c-0.97,2.18-0.38,3.86,0.28,4.89c0.18,0.27,0.15,0.62-0.07,0.85
				C10.49,65.09,10.3,65.17,10.11,65.17z M12.75,53.24c0.02,0,0.04,0,0.05,0c0.37,0.02,0.69,0.26,0.82,0.62
				c0.31,0.87,0.87,2.17,1.75,3.37c1.68,2.31,2.17,4.66,1.39,6.59c1.68-1.11,2.61-2.82,2.75-5.08c0.06-0.83,0.01-2.2-0.59-4.09
				c-0.53-1.66-1.15-2.63-1.62-3.18c-0.01,1.34-0.36,2.16-0.99,2.3c-0.24,0.05-0.84,0.05-1.25-1.03c-0.23-0.63-0.36-1.66-0.36-2.9
				c0-2-0.62-3.92-1.74-5.39c-0.21-0.27-0.43-0.52-0.66-0.74c0.02,1.77-0.41,5.36-3.48,9.54C5.91,57.28,7,60.34,7.4,61.19
				c0.51,1.09,1.2,1.95,2.06,2.59c-0.55-1.22-0.82-2.91,0.1-4.96c1.05-2.35,1.87-4.04,2.36-5.05C12.08,53.44,12.4,53.24,12.75,53.24
				z"/>
		</g>
		<path d="M7.34,51.19c-0.1,0-0.2-0.03-0.28-0.09c-0.21-0.16-0.26-0.45-0.1-0.66c2.57-3.5,2.67-6.39,2.59-7.47
			c-0.02-0.26,0.18-0.49,0.44-0.51c0.26-0.02,0.49,0.18,0.51,0.44c0.09,1.19-0.01,4.35-2.77,8.1C7.63,51.13,7.49,51.19,7.34,51.19z"
			/>
		<path d="M18.52,65.7c-0.16,0-0.31-0.08-0.4-0.22c-0.14-0.22-0.08-0.51,0.14-0.65c1.16-0.74,2.57-2.29,2.73-5.49
			c0.01-0.26,0.22-0.48,0.5-0.45c0.26,0.01,0.46,0.23,0.45,0.49c-0.18,3.6-1.82,5.38-3.16,6.24C18.69,65.68,18.61,65.7,18.52,65.7z"
			/>
		<path d="M9.84,41.5c-0.26,0-0.47-0.21-0.47-0.47c0-0.01-0.01-1.08-0.31-2.13c-0.07-0.25,0.07-0.51,0.32-0.59
			c0.25-0.07,0.51,0.07,0.59,0.32c0.34,1.18,0.34,2.34,0.34,2.39C10.31,41.29,10.1,41.5,9.84,41.5L9.84,41.5z"/>
		<path d="M21.61,58.12C21.6,58.12,21.6,58.12,21.61,58.12c-0.27-0.01-0.48-0.22-0.47-0.48c0-0.01,0.02-1.08-0.26-2.13
			c-0.07-0.25,0.08-0.51,0.33-0.58c0.25-0.06,0.51,0.08,0.58,0.34c0.32,1.19,0.3,2.35,0.3,2.4C22.07,57.92,21.86,58.12,21.61,58.12z
			"/>
	</g>
	<rect y="38" class="st0" width="28" height="28"/>
</g>
<g>
	<g>
		<path class="st5" d="M49.71,48.14c0,0,4.47,2.02,6.49,0c2.02-2.02,5.51,0,5.51,0V40.9c0,0-3.5-2.02-5.51,0
			c-1.44,1.44-4.11,0.83-5.54,0.36c-0.47-0.15-0.95,0.19-0.95,0.68V48.14z"/>
		<path d="M59.3,64.5H40.11l0.37-0.73c0.26-0.52,0.58-1.03,0.95-1.51c0.35-0.46,0.76-1.19,0.68-2c-0.04-0.45,0.01-0.9,0.16-1.34
			c0.37-1.11,1.34-1.96,2.46-2.18c1.24-0.24,2.44,0.23,3.19,1.17V41.33h0.5c1.76,0,3.19,1.43,3.19,3.19v13.74
			c3.15,0.59,5.87,2.62,7.33,5.52L59.3,64.5z M41.78,63.5h15.85c-1.45-2.34-3.87-3.93-6.61-4.32l-0.43-0.06v-14.6
			c0-1.04-0.72-1.91-1.69-2.13v16.74l-0.57,0.08c-0.13,0.02-0.26,0.04-0.39,0.06l-0.38,0.07l-0.17-0.35
			c-0.45-0.95-1.45-1.46-2.5-1.26c-0.78,0.15-1.45,0.74-1.7,1.51c-0.1,0.31-0.14,0.62-0.11,0.93c0.09,0.9-0.21,1.83-0.87,2.7
			C42.07,63.07,41.92,63.28,41.78,63.5z"/>
		<path d="M54.97,52.01c-1.99,0-3.98-0.88-4.11-0.94l-0.29-0.13v-6.53c0-0.4,0.18-0.76,0.5-0.99c0.32-0.23,0.73-0.29,1.1-0.17
			c1.08,0.36,3.74,1.05,5.03-0.24c2.26-2.27,5.96-0.17,6.12-0.08l0.25,0.14v8.4l-0.75-0.43c-0.03-0.02-3.19-1.8-4.91-0.08
			C57.13,51.75,56.05,52.01,54.97,52.01z M51.57,50.28c0.98,0.38,4.15,1.46,5.63-0.02c1.68-1.68,4.14-0.96,5.37-0.44v-6.15
			c-0.78-0.38-3.22-1.39-4.66,0.05c-1.62,1.62-4.48,1-6.05,0.48c-0.09-0.03-0.17,0.01-0.2,0.03c-0.03,0.02-0.09,0.08-0.09,0.18
			V50.28z"/>
		<path d="M46.13,56.05c-0.28,0-0.5-0.22-0.5-0.5v-7.89c0-0.28,0.22-0.5,0.5-0.5s0.5,0.22,0.5,0.5v7.89
			C46.63,55.82,46.41,56.05,46.13,56.05z"/>
		<path d="M46.13,45.71c-0.28,0-0.5-0.22-0.5-0.5v-2.73c0-0.28,0.22-0.5,0.5-0.5s0.5,0.22,0.5,0.5v2.73
			C46.63,45.48,46.41,45.71,46.13,45.71z"/>
		<path d="M60.74,63.64c-0.2,0-0.38-0.12-0.46-0.31c-1.16-2.83-3.62-4.92-6.59-5.59c-0.27-0.06-0.44-0.33-0.38-0.6
			s0.33-0.43,0.6-0.38c3.29,0.74,6.01,3.05,7.3,6.19c0.1,0.26-0.02,0.55-0.27,0.65C60.87,63.63,60.8,63.64,60.74,63.64z"/>
	</g>
	<rect x="38" y="38" class="st0" width="28" height="28"/>
</g>
<g>
	<g>
		<path class="st5" d="M20.18,93.99h-5.99c-1.1,0-1.99-0.89-1.99-1.99v-5.99h5.99c1.1,0,1.99,0.89,1.99,1.99V93.99z"/>
		<g>
			<path d="M14.52,101.5H5.15c-1.46,0-2.65-1.19-2.65-2.65v-9.37h12.02V101.5z M3.54,90.52v8.33c0,0.89,0.72,1.61,1.61,1.61h8.33
				v-9.94H3.54z"/>
			<path d="M22.85,101.5h-9.37V89.48H25.5v9.37C25.5,100.31,24.31,101.5,22.85,101.5z M14.52,100.46h8.33
				c0.89,0,1.61-0.72,1.61-1.61v-8.33h-9.94V100.46z"/>
			<path d="M20.01,90.52H7.99v-9.37c0-1.46,1.19-2.65,2.65-2.65h6.73c1.46,0,2.65,1.19,2.65,2.65V90.52z M9.03,89.48h9.94v-8.33
				c0-0.89-0.72-1.61-1.61-1.61h-6.73c-0.89,0-1.61,0.72-1.61,1.61V89.48z"/>
			<path d="M17.16,88.51h-6.31v-1.25c0-1.34,1.09-2.42,2.42-2.42h1.47c1.34,0,2.42,1.09,2.42,2.42V88.51z M11.88,87.47h4.23v-0.21
				c0-0.76-0.62-1.38-1.38-1.38h-1.47c-0.76,0-1.38,0.62-1.38,1.38V87.47z"/>
			<path d="M14,84.74c-1.03,0-1.86-0.83-1.86-1.86c0-1.03,0.83-1.86,1.86-1.86s1.86,0.83,1.86,1.86C15.86,83.9,15.03,84.74,14,84.74
				z M14,82.06c-0.45,0-0.82,0.37-0.82,0.82S13.55,83.7,14,83.7s0.82-0.37,0.82-0.82S14.45,82.06,14,82.06z"/>
			<path d="M10.49,99.11H6.53c-0.85,0-1.54-0.69-1.54-1.55v-1.37c0-0.85,0.69-1.55,1.54-1.55h3.96c0.85,0,1.54,0.69,1.54,1.55v1.37
				C12.03,98.42,11.34,99.11,10.49,99.11z M6.53,95.69c-0.28,0-0.5,0.23-0.5,0.5v1.37c0,0.28,0.23,0.5,0.5,0.5h3.96
				c0.28,0,0.5-0.23,0.5-0.5v-1.37c0-0.28-0.23-0.5-0.5-0.5H6.53z"/>
			<path d="M10.61,95.69h-4.2v-1.45c0-0.62,0.51-1.13,1.13-1.13h1.94c0.62,0,1.13,0.51,1.13,1.13V95.69z M7.45,94.65h2.12v-0.41
				c0-0.05-0.04-0.09-0.09-0.09H7.54c-0.05,0-0.09,0.04-0.09,0.09V94.65z"/>
			<path d="M22.37,99.11h-5.42V93.1c0-0.68,0.56-1.24,1.24-1.24h2.94c0.68,0,1.24,0.56,1.24,1.24V99.11z M17.99,98.07h3.34V93.1
				c0-0.11-0.09-0.2-0.2-0.2h-2.94c-0.11,0-0.2,0.09-0.2,0.2V98.07z"/>
			<path d="M20.41,94.39h-1.5c-0.29,0-0.52-0.23-0.52-0.52s0.23-0.52,0.52-0.52h1.5c0.29,0,0.52,0.23,0.52,0.52
				S20.7,94.39,20.41,94.39z"/>
			<path d="M20.41,96h-1.5c-0.29,0-0.52-0.23-0.52-0.52s0.23-0.52,0.52-0.52h1.5c0.29,0,0.52,0.23,0.52,0.52S20.7,96,20.41,96z"/>
			<path d="M19.66,98.9c-0.29,0-0.52-0.23-0.52-0.52v-1.5c0-0.29,0.23-0.52,0.52-0.52s0.52,0.23,0.52,0.52v1.5
				C20.18,98.67,19.95,98.9,19.66,98.9z"/>
		</g>
		<path d="M7.33,88.82H3.79c-0.28,0-0.5-0.22-0.5-0.5s0.22-0.5,0.5-0.5h2.54v-1.81c0-0.28,0.22-0.5,0.5-0.5s0.5,0.22,0.5,0.5V88.82z
			"/>
		<path d="M6.83,85.01c-0.28,0-0.5-0.22-0.5-0.5v-1.92c0-0.28,0.22-0.5,0.5-0.5s0.5,0.22,0.5,0.5v1.92
			C7.33,84.79,7.11,85.01,6.83,85.01z"/>
		<path d="M24.46,89.01h-3.53c-0.28,0-0.5-0.22-0.5-0.5s0.22-0.5,0.5-0.5h3.53c0.28,0,0.5,0.22,0.5,0.5S24.74,89.01,24.46,89.01z"/>
	</g>
	<rect y="76" class="st0" width="28" height="28"/>
</g>
<g>
	<rect x="108.63" y="-113.8" class="st0" width="28" height="28"/>
	<g>
		<path class="st6" d="M127.2-95.66h-9.15v-5.54c0-0.41,0.18-0.81,0.49-1.09l2.7-2.46c0.78-0.71,2-0.71,2.78,0l2.7,2.46
			c0.31,0.29,0.49,0.68,0.49,1.09V-95.66z"/>
		<path class="st7" d="M130.49-88.3h-15.71c-0.81,0-1.47-0.65-1.47-1.45v-9.04h-1.2c-0.62,0-1.16-0.37-1.38-0.93
			c-0.22-0.56-0.07-1.18,0.38-1.58l3.71-3.39v-3.9c0-0.57,0.47-1.03,1.04-1.03h1.54c0.57,0,1.04,0.46,1.04,1.03v0.59l3.19-2.91
			c0.56-0.51,1.44-0.51,2,0l10.52,9.6c0.44,0.4,0.59,1.03,0.38,1.58c-0.22,0.57-0.76,0.93-1.38,0.93h-1.2v9.04
			C131.96-88.95,131.3-88.3,130.49-88.3z M115.86-108.62l-0.04,4.37l-4.04,3.68c-0.2,0.19-0.15,0.4-0.12,0.48
			c0.03,0.07,0.14,0.3,0.44,0.3h2.2v10.04c0,0.25,0.21,0.45,0.47,0.45h15.71c0.26,0,0.47-0.2,0.47-0.45v-10.04h2.2
			c0.31,0,0.42-0.23,0.44-0.3c0.03-0.08,0.09-0.3-0.12-0.48l-10.52-9.6c-0.18-0.17-0.47-0.17-0.65,0l-4.87,4.44v-2.86L115.86-108.62
			z M127.7-92.65h-10.15v-6.91l5.07-4.63l5.07,4.63V-92.65z M118.56-93.65h8.15v-5.47l-4.07-3.72l-4.07,3.72V-93.65z"/>
		<path class="st7" d="M122.63-90.32h-7.34v-3.61c0-0.28,0.22-0.5,0.5-0.5s0.5,0.22,0.5,0.5v2.61h6.34c0.28,0,0.5,0.22,0.5,0.5
			S122.91-90.32,122.63-90.32z"/>
		<path class="st7" d="M127.81-90.32h-2.33c-0.28,0-0.5-0.22-0.5-0.5s0.22-0.5,0.5-0.5h2.33c0.28,0,0.5,0.22,0.5,0.5
			S128.08-90.32,127.81-90.32z"/>
	</g>
</g>
<g>
	<g>
		<g>
			<ellipse class="st6" cx="160.63" cy="-100.59" rx="4.11" ry="4.3"/>
			<path class="st7" d="M160.63-87.69l-0.36-0.36c-0.29-0.29-7.05-7.23-7.57-14.79c-0.03-0.28-0.05-0.58-0.05-0.89
				c0-4.5,3.58-8.17,7.98-8.17s7.98,3.66,7.98,8.17c0,0.31-0.02,0.62-0.05,0.92c-0.53,7.42-7.28,14.46-7.56,14.76L160.63-87.69z
				 M160.63-110.9c-3.85,0-6.98,3.21-6.98,7.17c0,0.27,0.02,0.54,0.05,0.8c0.43,6.23,5.52,12.24,6.93,13.79
				c1.4-1.57,6.49-7.65,6.93-13.77c0.03-0.29,0.05-0.56,0.05-0.83C167.61-107.69,164.48-110.9,160.63-110.9z M160.63-98.55
				c-2.59,0-4.69-2.15-4.69-4.8s2.1-4.8,4.69-4.8s4.69,2.15,4.69,4.8S163.22-98.55,160.63-98.55z M160.63-107.15
				c-2.04,0-3.69,1.7-3.69,3.8c0,2.09,1.66,3.8,3.69,3.8s3.69-1.7,3.69-3.8C164.32-105.45,162.67-107.15,160.63-107.15z"/>
		</g>
		<path class="st7" d="M166.54-103.59c-0.25,0-0.47-0.19-0.5-0.45c-0.15-1.52-0.88-2.85-2.03-3.76c-1.14-0.9-2.61-1.3-4.14-1.15
			c-0.27,0.02-0.52-0.17-0.55-0.45c-0.03-0.27,0.17-0.52,0.45-0.55c1.78-0.18,3.51,0.3,4.85,1.36c1.37,1.08,2.23,2.66,2.41,4.45
			c0.03,0.27-0.17,0.52-0.45,0.55C166.57-103.59,166.55-103.59,166.54-103.59z"/>
		<path class="st7" d="M155.24-105.43c-0.05,0-0.11-0.01-0.16-0.03c-0.26-0.09-0.4-0.37-0.31-0.63c0.72-2.15,2.41-2.99,2.49-3.02
			c0.25-0.12,0.55-0.02,0.67,0.23c0.12,0.25,0.02,0.55-0.23,0.67c-0.03,0.01-1.39,0.71-1.97,2.44
			C155.65-105.56,155.45-105.43,155.24-105.43z"/>
	</g>
	<rect x="146.63" y="-113.8" class="st0" width="28" height="28"/>
</g>
<g>
	<g>
		<path class="st8" d="M120.02-62.59h6.8c1.12,0,2.03,0.91,2.03,2.03v6.37h-8.02c-1.57,0-2.85-1.27-2.85-2.85v-3.53
			C117.98-61.68,118.89-62.59,120.02-62.59z"/>
		<path class="st7" d="M130.6-50h-14.37c-0.87,0-1.58-0.71-1.58-1.58v-6.02c0-2.32,1.88-4.2,4.2-4.2h7.55c2.32,0,4.2,1.89,4.2,4.2
			V-50z M118.86-60.8c-1.76,0-3.2,1.44-3.2,3.2v6.02c0,0.32,0.26,0.58,0.58,0.58h13.37v-6.6c0-1.77-1.44-3.2-3.2-3.2H118.86z"/>
		<path class="st7" d="M122.63-63.17c-2.55,0-4.63-2.52-4.63-5.62v-0.5h9.27v0.5C127.26-65.69,125.18-63.17,122.63-63.17z
			 M119.02-68.29c0.2,2.31,1.74,4.12,3.61,4.12s3.42-1.81,3.61-4.12H119.02z"/>
		<path class="st7" d="M126.76-68.29h-8.27c-0.22,0-0.41-0.14-0.48-0.34c-0.02-0.07-0.57-1.79,0.44-3.08
			c0.77-0.98,2.18-1.41,4.2-1.27c3.7,0.26,4.34-0.33,4.42-0.43c-0.04-0.25,0.11-0.49,0.35-0.57c0.25-0.07,0.52,0.06,0.61,0.3
			c0.02,0.04,0.03,0.09,0.04,0.15c0.13,0.62,0.69,3.56-0.24,4.72C127.57-68.47,127.2-68.29,126.76-68.29z M118.9-69.29h7.87
			c0.13,0,0.22-0.04,0.3-0.14c0.37-0.46,0.35-1.76,0.2-2.91c-0.86,0.4-2.41,0.52-4.67,0.36c-1.65-0.12-2.8,0.19-3.34,0.88
			C118.79-70.51,118.83-69.73,118.9-69.29z"/>
		<path class="st7" d="M120.43-52.47h-2.45c-0.28,0-0.5-0.22-0.5-0.5v-4.56c0-0.28,0.22-0.5,0.5-0.5s0.5,0.22,0.5,0.5v4.06h1.95
			c0.28,0,0.5,0.22,0.5,0.5S120.71-52.47,120.43-52.47z"/>
		<path class="st7" d="M123.39-52.47h-1.19c-0.28,0-0.5-0.22-0.5-0.5s0.22-0.5,0.5-0.5h1.19c0.28,0,0.5,0.22,0.5,0.5
			S123.67-52.47,123.39-52.47z"/>
	</g>
	<rect x="108.63" y="-76" class="st0" width="28" height="28"/>
</g>
<g>
	<g>
		<g>
			<path class="st8" d="M160.06-51.4h-6.87c-2.38,0-4.31-1.93-4.31-4.31v-5.95c0-0.44,0.35-0.79,0.79-0.79h10.39
				c0.44,0,0.79,0.35,0.79,0.79v9.46C160.85-51.75,160.49-51.4,160.06-51.4z"/>
			<path class="st7" d="M170.4-54.31h-3.15c-0.28,0-0.5-0.22-0.5-0.5s0.22-0.5,0.5-0.5h2.15v-3.03c0-0.28,0.22-0.5,0.5-0.5
				s0.5,0.22,0.5,0.5V-54.31z"/>
			<path class="st7" d="M165.26-54.31h-1.99c-0.28,0-0.5-0.22-0.5-0.5s0.22-0.5,0.5-0.5h1.99c0.28,0,0.5,0.22,0.5,0.5
				S165.53-54.31,165.26-54.31z"/>
			<rect x="152.59" y="-70.01" class="st7" width="2.28" height="2.26"/>
			<rect x="156.83" y="-66.3" class="st7" width="2.28" height="2.26"/>
			<rect x="152.59" y="-66.3" class="st7" width="2.28" height="2.26"/>
			<rect x="152.59" y="-62.74" class="st7" width="2.28" height="2.26"/>
			<rect x="156.83" y="-62.74" class="st7" width="2.28" height="2.26"/>
			<rect x="156.83" y="-59.18" class="st7" width="2.28" height="2.26"/>
			<rect x="167.57" y="-66.3" class="st7" width="2.28" height="2.26"/>
			<rect x="163.32" y="-66.3" class="st7" width="2.28" height="2.26"/>
			<rect x="163.32" y="-62.74" class="st7" width="2.28" height="2.26"/>
			<rect x="167.57" y="-62.74" class="st7" width="2.28" height="2.26"/>
			<rect x="163.32" y="-59.18" class="st7" width="2.28" height="2.26"/>
			<path class="st7" d="M161.28-52.53h-6.52c-2.67,0-4.85-2.16-4.85-4.82V-72.6h11.87v8.56c0,0.28-0.22,0.5-0.5,0.5
				s-0.5-0.22-0.5-0.5v-7.56h-9.87v14.25c0,2.11,1.73,3.82,3.85,3.82h6.52c0.28,0,0.5,0.22,0.5,0.5S161.56-52.53,161.28-52.53z"/>
			<path class="st7" d="M161.28-56.42c-0.28,0-0.5-0.22-0.5-0.5v-3.56c0-0.28,0.22-0.5,0.5-0.5s0.5,0.22,0.5,0.5v3.56
				C161.78-56.65,161.56-56.42,161.28-56.42z"/>
			<path class="st7" d="M172.38-52.53h-11.1c-0.28,0-0.5-0.22-0.5-0.5s0.22-0.5,0.5-0.5h10.1v-14.42h-10.1c-0.28,0-0.5-0.22-0.5-0.5
				s0.22-0.5,0.5-0.5h11.1V-52.53z"/>
		</g>
		<path class="st7" d="M168.57-67.95c-0.28,0-0.5-0.22-0.5-0.5v-3.65c0-0.28,0.22-0.5,0.5-0.5s0.5,0.22,0.5,0.5v3.65
			C169.07-68.17,168.85-67.95,168.57-67.95z"/>
		<path class="st7" d="M170.27-71.6h-3.4c-0.28,0-0.5-0.22-0.5-0.5s0.22-0.5,0.5-0.5h3.4c0.28,0,0.5,0.22,0.5,0.5
			S170.55-71.6,170.27-71.6z"/>
		<path class="st7" d="M170.27-69.78h-3.4c-0.28,0-0.5-0.22-0.5-0.5s0.22-0.5,0.5-0.5h3.4c0.28,0,0.5,0.22,0.5,0.5
			S170.55-69.78,170.27-69.78z"/>
	</g>
	<rect x="146.63" y="-76" class="st0" width="28" height="28"/>
</g>
<g>
	<g>
		<path class="st8" d="M157.44-18.17h10.3c1.75,0,3.17-1.42,3.17-3.17v-6.41c0-0.74-0.6-1.34-1.34-1.34h-9.85
			c-1.75,0-3.17,1.42-3.17,3.17v6.85C156.54-18.57,156.94-18.17,157.44-18.17z"/>
		<path class="st7" d="M149.67-15.64c-0.14,0-0.28-0.03-0.42-0.09c-0.38-0.17-0.62-0.53-0.62-0.95v-15.28
			c0-0.96,0.78-1.74,1.73-1.74h13.87c3.19,0,5.79,2.62,5.79,5.83v6.71c0,0.96-0.78,1.74-1.73,1.74h-14.07l-3.87,3.5
			C150.16-15.74,149.92-15.64,149.67-15.64z M150.36-32.7c-0.4,0-0.73,0.33-0.73,0.74v15.28l4.2-3.73h14.46
			c0.4,0,0.73-0.33,0.73-0.74v-6.71c0-2.67-2.15-4.83-4.79-4.83H150.36z"/>
		<path class="st7" d="M171.66-14.3c-0.24,0-0.47-0.09-0.65-0.26l-3.4-3.08h-12.44c-0.88,0-1.59-0.72-1.59-1.6v-0.6
			c0-0.28,0.22-0.5,0.5-0.5s0.5,0.22,0.5,0.5v0.6c0,0.33,0.26,0.6,0.59,0.6h12.82l3.69,3.34l-0.05-2.84V-28.8
			c0-0.33-0.27-0.6-0.59-0.6h-1.6c-0.28,0-0.5-0.22-0.5-0.5s0.22-0.5,0.5-0.5h1.6c0.88,0,1.59,0.72,1.59,1.6v13.53
			c0,0.39-0.22,0.73-0.58,0.89C171.92-14.33,171.79-14.3,171.66-14.3z"/>
		<g>
			<path class="st7" d="M159.33-24.66c-0.98,0-1.77-0.8-1.77-1.78s0.79-1.78,1.77-1.78c0.98,0,1.77,0.8,1.77,1.78
				S160.3-24.66,159.33-24.66z M159.33-27.22c-0.43,0-0.77,0.35-0.77,0.78s0.35,0.78,0.77,0.78c0.43,0,0.77-0.35,0.77-0.78
				S159.75-27.22,159.33-27.22z"/>
			<path class="st7" d="M154.28-24.66c-0.98,0-1.77-0.8-1.77-1.78s0.79-1.78,1.77-1.78s1.77,0.8,1.77,1.78
				S155.26-24.66,154.28-24.66z M154.28-27.22c-0.43,0-0.77,0.35-0.77,0.78s0.35,0.78,0.77,0.78s0.77-0.35,0.77-0.78
				S154.71-27.22,154.28-27.22z"/>
			<path class="st7" d="M164.37-24.66c-0.98,0-1.77-0.8-1.77-1.78s0.79-1.78,1.77-1.78s1.77,0.8,1.77,1.78
				S165.35-24.66,164.37-24.66z M164.37-27.22c-0.43,0-0.77,0.35-0.77,0.78s0.35,0.78,0.77,0.78s0.77-0.35,0.77-0.78
				S164.8-27.22,164.37-27.22z"/>
		</g>
		<path class="st7" d="M168.34-21.13h-4.62c-0.28,0-0.5-0.22-0.5-0.5s0.22-0.5,0.5-0.5h3.62v-1.33c0-0.28,0.22-0.5,0.5-0.5
			s0.5,0.22,0.5,0.5V-21.13z"/>
		<path class="st7" d="M161.83-21.13h-1.84c-0.28,0-0.5-0.22-0.5-0.5s0.22-0.5,0.5-0.5h1.84c0.28,0,0.5,0.22,0.5,0.5
			S162.11-21.13,161.83-21.13z"/>
		<path class="st7" d="M155.55-31.12h-4.74c-0.28,0-0.5-0.22-0.5-0.5s0.22-0.5,0.5-0.5h4.74c0.28,0,0.5,0.22,0.5,0.5
			S155.83-31.12,155.55-31.12z"/>
	</g>
	<rect x="146.63" y="-38" class="st0" width="28" height="28"/>
</g>
<g>
	<g>
		<path class="st8" d="M127.36-18.06h-8.03c-0.7,0-1.32-0.57-1.51-1.39l-1.74-7.66h14.53l-1.74,7.66
			C128.68-18.63,128.06-18.06,127.36-18.06z"/>
		<path class="st7" d="M129.21-13.72h-17.08c-0.83,0-1.51-0.68-1.51-1.51v-9.01c0-2.99,2.43-5.42,5.42-5.42h17.23
			c0.75,0,1.36,0.61,1.36,1.36v9.17C134.63-16.15,132.2-13.72,129.21-13.72z M116.05-28.66c-2.44,0-4.42,1.98-4.42,4.42v9.01
			c0,0.28,0.23,0.51,0.51,0.51h17.08c2.44,0,4.42-1.98,4.42-4.42v-9.17c0-0.2-0.16-0.36-0.36-0.36H116.05z"/>
		<path class="st7" d="M126.64-21.06h-7.12c-0.85,0-1.6-0.63-1.82-1.53L116-29.53h14.15l-1.69,6.94
			C128.24-21.69,127.49-21.06,126.64-21.06z M117.28-28.53l1.39,5.7c0.11,0.45,0.46,0.77,0.85,0.77h7.12c0.39,0,0.74-0.32,0.85-0.77
			l1.39-5.7H117.28z"/>
		<path class="st7" d="M124.99-15.95h-5.48v-3.4h7.29v1.59C126.8-16.76,125.98-15.95,124.99-15.95z M120.51-16.95h4.48
			c0.44,0,0.81-0.36,0.81-0.81v-0.59h-5.29V-16.95z"/>
		<path class="st7" d="M129.46-28.66h-3.82l-0.69-1.94c-0.08-0.22-0.28-0.36-0.5-0.36h-2.63c-0.22,0-0.42,0.15-0.5,0.36l-0.68,1.94
			h-3.82l1.38-3.92c0.36-1.01,1.31-1.7,2.36-1.7h5.13c1.06,0,2.01,0.68,2.36,1.7L129.46-28.66z M126.35-29.66h1.7l-0.91-2.58
			c-0.22-0.61-0.79-1.03-1.42-1.03h-5.13c-0.63,0-1.2,0.41-1.42,1.03l-0.91,2.58h1.7l0.45-1.28c0.22-0.62,0.8-1.03,1.44-1.03h2.63
			c0.64,0,1.22,0.41,1.44,1.03L126.35-29.66z"/>
		<path class="st7" d="M112.88-19.19c-0.28,0-0.5-0.22-0.5-0.5v-2c0-0.28,0.22-0.5,0.5-0.5s0.5,0.22,0.5,0.5v2
			C113.38-19.42,113.16-19.19,112.88-19.19z"/>
		<path class="st7" d="M112.88-23.41c-0.28,0-0.5-0.22-0.5-0.5c0-1.59,0.89-3,2.17-3.43c0.26-0.09,0.54,0.05,0.63,0.32
			s-0.05,0.54-0.32,0.63c-0.88,0.29-1.49,1.31-1.49,2.48C113.38-23.64,113.16-23.41,112.88-23.41z"/>
		<path class="st7" d="M132.29-21.58c-0.28,0-0.5-0.22-0.5-0.5v-5.48c0-0.28,0.22-0.5,0.5-0.5s0.5,0.22,0.5,0.5v5.48
			C132.79-21.8,132.57-21.58,132.29-21.58z"/>
	</g>
	<rect x="108.63" y="-38" class="st0" width="28" height="28"/>
</g>
<g>
	<g>
		<path class="st8" d="M121.73,4.12v10.69h10.6C132.34,8.91,127.59,4.12,121.73,4.12z"/>
		<path class="st7" d="M121.73,26c-6.12,0-11.1-5.02-11.1-11.19c0-6.17,4.98-11.19,11.1-11.19h0.5v10.69h10.6v0.5
			C132.84,20.98,127.86,26,121.73,26z M121.23,4.63c-5.34,0.26-9.6,4.73-9.6,10.18c0,5.62,4.53,10.19,10.1,10.19
			c5.41,0,9.83-4.3,10.09-9.69h-10.59V4.63z"/>
		<path class="st7" d="M113.21,17.66c-0.23,0-0.43-0.15-0.49-0.38c-1.25-5.16,1.91-10.38,7.03-11.64c0.27-0.06,0.54,0.1,0.6,0.37
			c0.07,0.27-0.1,0.54-0.37,0.6c-4.59,1.12-7.41,5.8-6.3,10.43c0.06,0.27-0.1,0.54-0.37,0.6C113.29,17.65,113.25,17.66,113.21,17.66
			z"/>
		<path class="st7" d="M121.73,22.38c-0.28,0-0.5-0.22-0.5-0.5v-7.06c0-0.28,0.22-0.5,0.5-0.5s0.5,0.22,0.5,0.5v7.06
			C122.23,22.15,122.01,22.38,121.73,22.38z"/>
		<path class="st7" d="M123.22,19.61c-0.28,0-0.5-0.22-0.5-0.5V16.5c0-0.28,0.22-0.5,0.5-0.5s0.5,0.22,0.5,0.5v2.61
			C123.72,19.38,123.5,19.61,123.22,19.61z"/>
		<path class="st7" d="M115.21,21.38c-0.12,0-0.24-0.04-0.34-0.13c-1.08-1-1.41-2.19-1.42-2.25c-0.07-0.27,0.09-0.54,0.36-0.61
			c0.27-0.07,0.54,0.09,0.61,0.35c0.01,0.03,0.28,0.98,1.13,1.77c0.2,0.19,0.22,0.5,0.03,0.71
			C115.48,21.32,115.35,21.38,115.21,21.38z"/>
		<g>
			<path class="st7" d="M134.63,13.69h-10.51c-0.6,0-1.09-0.49-1.09-1.1V2h0.5c6.12,0,11.1,5.02,11.1,11.19V13.69z M124.03,3.01
				v9.58c0,0.05,0.04,0.1,0.09,0.1h9.5C133.37,7.47,129.2,3.27,124.03,3.01z"/>
			<path class="st7" d="M123.53,11.7c-0.13,0-0.27-0.05-0.37-0.16c-0.19-0.2-0.17-0.52,0.03-0.71l6.66-6.12
				c0.2-0.19,0.52-0.17,0.71,0.03s0.17,0.52-0.03,0.71l-6.66,6.12C123.77,11.66,123.65,11.7,123.53,11.7z"/>
			<path class="st7" d="M123.53,7.72c-0.13,0-0.27-0.05-0.37-0.16c-0.19-0.2-0.17-0.52,0.03-0.71l4.18-3.84
				c0.2-0.19,0.52-0.17,0.71,0.03c0.19,0.2,0.17,0.52-0.03,0.71l-4.18,3.84C123.77,7.68,123.65,7.72,123.53,7.72z"/>
			<path class="st7" d="M125.63,13.59c-0.13,0-0.27-0.05-0.37-0.16c-0.19-0.2-0.17-0.52,0.03-0.71l6.38-5.87
				c0.2-0.19,0.52-0.17,0.71,0.03s0.17,0.52-0.03,0.71l-6.38,5.87C125.87,13.54,125.75,13.59,125.63,13.59z"/>
			<path class="st7" d="M129.57,13.57c-0.13,0-0.27-0.05-0.37-0.16c-0.19-0.2-0.17-0.52,0.03-0.71l3.78-3.47
				c0.2-0.19,0.52-0.17,0.71,0.03c0.19,0.2,0.17,0.52-0.03,0.71l-3.78,3.47C129.81,13.52,129.69,13.57,129.57,13.57z"/>
		</g>
	</g>
	<rect x="108.63" class="st0" width="28" height="28"/>
</g>
<g>
	<g>
		<path class="st8" d="M155.17,20.27h10.92c-0.16-0.48-0.24-0.99-0.22-1.5c0.01-0.53-0.06-1.09-0.23-1.65
			c-0.56-1.85-2.15-3.29-4.06-3.62c-3.31-0.58-6.18,1.95-6.18,5.15l0,0.33C155.41,19.42,155.32,19.86,155.17,20.27z"/>
		<path class="st7" d="M168.66,21h-16.37l-0.19-0.48c-0.11-2.13,0.56-4.21,1.91-5.86c0.58-0.71,0.89-1.52,0.89-2.32l0-0.33
			c0-1.7,0.75-3.3,2.05-4.39c1.3-1.09,3.02-1.55,4.72-1.25c2.08,0.37,3.83,1.92,4.45,3.97c0.18,0.6,0.26,1.21,0.25,1.81l0,0
			c-0.02,0.93,0.25,1.75,0.78,2.38c1.42,1.67,2.14,3.8,2.02,5.99V21H168.66z M153.08,20h15.09c-0.01-1.77-0.64-3.47-1.8-4.82
			c-0.7-0.82-1.05-1.87-1.02-3.05v0c0.01-0.5-0.06-1-0.21-1.49c-0.51-1.69-1.95-2.97-3.66-3.27c-1.41-0.25-2.83,0.13-3.9,1.03
			c-1.07,0.9-1.69,2.22-1.69,3.62l0,0.33c0,1.04-0.38,2.06-1.12,2.95C153.69,16.63,153.1,18.29,153.08,20z"/>
		<path class="st7" d="M160.63,6.94c-1.36,0-2.47-1.11-2.47-2.47S159.27,2,160.63,2s2.47,1.11,2.47,2.47S161.99,6.94,160.63,6.94z
			 M160.63,3c-0.81,0-1.47,0.66-1.47,1.47s0.66,1.47,1.47,1.47s1.47-0.66,1.47-1.47S161.44,3,160.63,3z"/>
		<path class="st7" d="M160.63,26c-1.24,0-2.26-1.01-2.26-2.26v-0.5h4.51v0.5C162.89,24.99,161.87,26,160.63,26z M159.48,24.24
			c0.19,0.45,0.64,0.76,1.15,0.76s0.96-0.31,1.15-0.76H159.48z"/>
		<path class="st7" d="M170.03,24.24h-19.3v-0.5c0-2.07,1.67-3.74,3.72-3.74h12.36c2.05,0,3.72,1.67,3.72,3.72v0.5L170.03,24.24z
			 M151.77,23.24h17.71c-0.23-1.27-1.34-2.24-2.68-2.24h-12.36C153.12,21,152,21.97,151.77,23.24z"/>
		<path class="st7" d="M156.93,12.09c-0.28,0-0.5-0.22-0.5-0.5c0-2.01,1.58-3.67,3.52-3.7c0.27,0,0.5,0.22,0.51,0.49
			s-0.22,0.5-0.49,0.51c-1.4,0.02-2.54,1.23-2.54,2.7C157.43,11.87,157.21,12.09,156.93,12.09z"/>
		<path class="st7" d="M163.45,9.89c-0.14,0-0.27-0.06-0.37-0.17c-0.69-0.77-1.34-0.83-1.37-0.83c-0.27-0.02-0.48-0.26-0.46-0.53
			c0.02-0.27,0.25-0.48,0.52-0.47c0.11,0.01,1.09,0.09,2.05,1.17c0.18,0.21,0.17,0.52-0.04,0.71
			C163.69,9.85,163.57,9.89,163.45,9.89z"/>
		<path class="st7" d="M166.77,19.53h-2.63c-0.28,0-0.5-0.22-0.5-0.5s0.22-0.5,0.5-0.5h2.26c-0.15-0.34-0.36-0.72-0.46-0.87
			c-0.14-0.24-0.07-0.54,0.17-0.69c0.23-0.14,0.54-0.07,0.69,0.17c0.02,0.03,0.5,0.83,0.68,1.43c0.07,0.22,0.03,0.46-0.11,0.65
			C167.24,19.41,167.01,19.53,166.77,19.53z M166.54,18.86h0.01H166.54z"/>
		<path class="st7" d="M162.81,19.53h-1.46c-0.28,0-0.5-0.22-0.5-0.5s0.22-0.5,0.5-0.5h1.46c0.28,0,0.5,0.22,0.5,0.5
			S163.08,19.53,162.81,19.53z"/>
	</g>
	<rect x="146.63" class="st0" width="28" height="28"/>
</g>
<g>
	<g>
		<path class="st8" d="M119.63,63.82c-0.72-0.53-0.95-2.03-0.22-3.67c0.73-1.63,1.29-2.79,1.62-3.46c0.12-0.24,0.47-0.22,0.56,0.04
			c0.22,0.62,0.61,1.54,1.24,2.4c0.81,1.11,1.33,2.45,1.07,3.69c-0.14,0.66-0.67,1.15-1.32,1.33
			C121.79,64.38,120.6,64.52,119.63,63.82z"/>
		<g>
			<path class="st2" d="M118.74,65.17c-0.11,0-0.23-0.03-0.34-0.08l0,0c-1.4-0.74-2.48-1.92-3.23-3.49c-0.46-0.96-1.7-4.45,1.5-8.9
				c3.26-4.43,3.38-8.1,3.28-9.47c-0.02-0.28,0.13-0.54,0.37-0.68c0.25-0.13,0.55-0.11,0.77,0.07c0.45,0.35,0.87,0.78,1.24,1.26
				c1.25,1.63,1.94,3.75,1.94,5.96c0,1.11,0.11,2.05,0.3,2.56c0.07,0.18,0.13,0.3,0.18,0.37c0.11-0.2,0.28-0.75,0.21-1.86
				c-0.02-0.29,0.14-0.55,0.39-0.68c0.26-0.13,0.56-0.09,0.78,0.1c0.64,0.56,1.56,1.72,2.31,4.03c0.65,2.04,0.7,3.54,0.63,4.44
				c-0.22,3.62-2.27,5.4-3.94,6.25c-0.29,0.14-0.63,0.09-0.84-0.15c-0.22-0.23-0.25-0.58-0.08-0.85c1.49-2.42-0.19-5.19-0.98-6.27
				c-0.94-1.29-1.54-2.68-1.87-3.61c-0.45,1-1.26,2.68-2.31,5.02c-0.97,2.18-0.38,3.86,0.28,4.89c0.18,0.27,0.15,0.62-0.07,0.85
				C119.12,65.09,118.93,65.17,118.74,65.17z M121.38,53.24c0.02,0,0.04,0,0.05,0c0.37,0.02,0.69,0.26,0.82,0.62
				c0.31,0.87,0.87,2.17,1.75,3.37c1.68,2.31,2.17,4.66,1.39,6.59c1.68-1.11,2.61-2.82,2.75-5.08c0.06-0.83,0.01-2.2-0.59-4.09
				c-0.53-1.66-1.15-2.63-1.62-3.18c-0.01,1.34-0.36,2.16-0.99,2.3c-0.24,0.05-0.84,0.05-1.25-1.03c-0.23-0.63-0.36-1.66-0.36-2.9
				c0-2-0.62-3.92-1.74-5.39c-0.21-0.27-0.43-0.52-0.66-0.74c0.02,1.77-0.41,5.36-3.48,9.54c-2.89,4.03-1.81,7.09-1.41,7.94
				c0.51,1.09,1.2,1.95,2.06,2.59c-0.55-1.22-0.82-2.91,0.1-4.96c1.05-2.35,1.87-4.04,2.36-5.05
				C120.71,53.44,121.03,53.24,121.38,53.24z"/>
		</g>
		<path class="st2" d="M115.97,51.19c-0.1,0-0.2-0.03-0.28-0.09c-0.21-0.16-0.26-0.45-0.1-0.66c2.57-3.5,2.67-6.39,2.59-7.47
			c-0.02-0.26,0.18-0.49,0.44-0.51c0.26-0.02,0.49,0.18,0.51,0.44c0.09,1.19-0.01,4.35-2.77,8.1
			C116.26,51.13,116.12,51.19,115.97,51.19z"/>
		<path class="st2" d="M127.15,65.7c-0.16,0-0.31-0.08-0.4-0.22c-0.14-0.22-0.08-0.51,0.14-0.65c1.16-0.74,2.57-2.29,2.73-5.49
			c0.01-0.26,0.22-0.48,0.5-0.45c0.26,0.01,0.46,0.23,0.45,0.49c-0.18,3.6-1.82,5.38-3.16,6.24
			C127.32,65.68,127.24,65.7,127.15,65.7z"/>
		<path class="st2" d="M118.47,41.5c-0.26,0-0.47-0.21-0.47-0.47c0-0.01-0.01-1.08-0.31-2.13c-0.07-0.25,0.07-0.51,0.32-0.59
			c0.25-0.07,0.51,0.07,0.59,0.32c0.34,1.18,0.34,2.34,0.34,2.39C118.94,41.29,118.73,41.5,118.47,41.5L118.47,41.5z"/>
		<path class="st2" d="M130.24,58.12C130.23,58.12,130.23,58.12,130.24,58.12c-0.27-0.01-0.48-0.22-0.47-0.48
			c0-0.01,0.02-1.08-0.26-2.13c-0.07-0.25,0.08-0.51,0.33-0.58c0.25-0.06,0.51,0.08,0.58,0.34c0.32,1.19,0.3,2.35,0.3,2.4
			C130.7,57.92,130.49,58.12,130.24,58.12z"/>
	</g>
	<rect x="108.63" y="38" class="st0" width="28" height="28"/>
</g>
<g>
	<g>
		<path class="st8" d="M158.34,48.14c0,0,4.47,2.02,6.49,0c2.02-2.02,5.51,0,5.51,0V40.9c0,0-3.5-2.02-5.51,0
			c-1.44,1.44-4.11,0.83-5.54,0.36c-0.47-0.15-0.95,0.19-0.95,0.68V48.14z"/>
		<path class="st2" d="M167.93,64.5h-19.19l0.37-0.73c0.26-0.52,0.58-1.03,0.95-1.51c0.35-0.46,0.76-1.19,0.68-2
			c-0.04-0.45,0.01-0.9,0.16-1.34c0.37-1.11,1.34-1.96,2.46-2.18c1.24-0.24,2.44,0.23,3.19,1.17V41.33h0.5
			c1.76,0,3.19,1.43,3.19,3.19v13.74c3.15,0.59,5.87,2.62,7.33,5.52L167.93,64.5z M150.41,63.5h15.85
			c-1.45-2.34-3.87-3.93-6.61-4.32l-0.43-0.06v-14.6c0-1.04-0.72-1.91-1.69-2.13v16.74l-0.57,0.08c-0.13,0.02-0.26,0.04-0.39,0.06
			l-0.38,0.07l-0.17-0.35c-0.45-0.95-1.45-1.46-2.5-1.26c-0.78,0.15-1.45,0.74-1.7,1.51c-0.1,0.31-0.14,0.62-0.11,0.93
			c0.09,0.9-0.21,1.83-0.87,2.7C150.7,63.07,150.55,63.28,150.41,63.5z"/>
		<path class="st2" d="M163.6,52.01c-1.99,0-3.98-0.88-4.11-0.94l-0.29-0.13v-6.53c0-0.4,0.18-0.76,0.5-0.99
			c0.32-0.23,0.73-0.29,1.1-0.17c1.08,0.36,3.74,1.05,5.03-0.24c2.26-2.27,5.96-0.17,6.12-0.08l0.25,0.14v8.4l-0.75-0.43
			c-0.03-0.02-3.19-1.8-4.91-0.08C165.76,51.75,164.68,52.01,163.6,52.01z M160.2,50.28c0.98,0.38,4.15,1.46,5.63-0.02
			c1.68-1.68,4.14-0.96,5.37-0.44v-6.15c-0.78-0.38-3.22-1.39-4.66,0.05c-1.62,1.62-4.48,1-6.05,0.48c-0.09-0.03-0.17,0.01-0.2,0.03
			c-0.03,0.02-0.09,0.08-0.09,0.18V50.28z"/>
		<path class="st2" d="M154.76,56.05c-0.28,0-0.5-0.22-0.5-0.5v-7.89c0-0.28,0.22-0.5,0.5-0.5s0.5,0.22,0.5,0.5v7.89
			C155.26,55.82,155.04,56.05,154.76,56.05z"/>
		<path class="st2" d="M154.76,45.71c-0.28,0-0.5-0.22-0.5-0.5v-2.73c0-0.28,0.22-0.5,0.5-0.5s0.5,0.22,0.5,0.5v2.73
			C155.26,45.48,155.04,45.71,154.76,45.71z"/>
		<path class="st2" d="M169.37,63.64c-0.2,0-0.38-0.12-0.46-0.31c-1.16-2.83-3.62-4.92-6.59-5.59c-0.27-0.06-0.44-0.33-0.38-0.6
			s0.33-0.43,0.6-0.38c3.29,0.74,6.01,3.05,7.3,6.19c0.1,0.26-0.02,0.55-0.27,0.65C169.5,63.63,169.43,63.64,169.37,63.64z"/>
	</g>
	<rect x="146.63" y="38" class="st0" width="28" height="28"/>
</g>
<g>
	<g>
		<path class="st8" d="M128.81,93.99h-5.99c-1.1,0-1.99-0.89-1.99-1.99v-5.99h5.99c1.1,0,1.99,0.89,1.99,1.99V93.99z"/>
		<g>
			<path class="st2" d="M123.15,101.5h-9.37c-1.46,0-2.65-1.19-2.65-2.65v-9.37h12.02V101.5z M112.17,90.52v8.33
				c0,0.89,0.72,1.61,1.61,1.61h8.33v-9.94H112.17z"/>
			<path class="st2" d="M131.48,101.5h-9.37V89.48h12.02v9.37C134.13,100.31,132.94,101.5,131.48,101.5z M123.15,100.46h8.33
				c0.89,0,1.61-0.72,1.61-1.61v-8.33h-9.94V100.46z"/>
			<path class="st2" d="M128.64,90.52h-12.02v-9.37c0-1.46,1.19-2.65,2.65-2.65h6.73c1.46,0,2.65,1.19,2.65,2.65V90.52z
				 M117.66,89.48h9.94v-8.33c0-0.89-0.72-1.61-1.61-1.61h-6.73c-0.89,0-1.61,0.72-1.61,1.61V89.48z"/>
			<path class="st2" d="M125.79,88.51h-6.31v-1.25c0-1.34,1.09-2.42,2.42-2.42h1.47c1.34,0,2.42,1.09,2.42,2.42V88.51z
				 M120.51,87.47h4.23v-0.21c0-0.76-0.62-1.38-1.38-1.38h-1.47c-0.76,0-1.38,0.62-1.38,1.38V87.47z"/>
			<path class="st2" d="M122.63,84.74c-1.03,0-1.86-0.83-1.86-1.86c0-1.03,0.83-1.86,1.86-1.86c1.03,0,1.86,0.83,1.86,1.86
				C124.49,83.9,123.66,84.74,122.63,84.74z M122.63,82.06c-0.45,0-0.82,0.37-0.82,0.82s0.37,0.82,0.82,0.82
				c0.45,0,0.82-0.37,0.82-0.82S123.08,82.06,122.63,82.06z"/>
			<path class="st2" d="M119.12,99.11h-3.96c-0.85,0-1.54-0.69-1.54-1.55v-1.37c0-0.85,0.69-1.55,1.54-1.55h3.96
				c0.85,0,1.54,0.69,1.54,1.55v1.37C120.66,98.42,119.97,99.11,119.12,99.11z M115.16,95.69c-0.28,0-0.5,0.23-0.5,0.5v1.37
				c0,0.28,0.23,0.5,0.5,0.5h3.96c0.28,0,0.5-0.23,0.5-0.5v-1.37c0-0.28-0.23-0.5-0.5-0.5H115.16z"/>
			<path class="st2" d="M119.24,95.69h-4.2v-1.45c0-0.62,0.51-1.13,1.13-1.13h1.94c0.62,0,1.13,0.51,1.13,1.13V95.69z M116.08,94.65
				h2.12v-0.41c0-0.05-0.04-0.09-0.09-0.09h-1.94c-0.05,0-0.09,0.04-0.09,0.09V94.65z"/>
			<path class="st2" d="M131,99.11h-5.42V93.1c0-0.68,0.56-1.24,1.24-1.24h2.94c0.68,0,1.24,0.56,1.24,1.24V99.11z M126.62,98.07
				h3.34V93.1c0-0.11-0.09-0.2-0.2-0.2h-2.94c-0.11,0-0.2,0.09-0.2,0.2V98.07z"/>
			<path class="st2" d="M129.04,94.39h-1.5c-0.29,0-0.52-0.23-0.52-0.52s0.23-0.52,0.52-0.52h1.5c0.29,0,0.52,0.23,0.52,0.52
				S129.33,94.39,129.04,94.39z"/>
			<path class="st2" d="M129.04,96h-1.5c-0.29,0-0.52-0.23-0.52-0.52s0.23-0.52,0.52-0.52h1.5c0.29,0,0.52,0.23,0.52,0.52
				S129.33,96,129.04,96z"/>
			<path class="st2" d="M128.29,98.9c-0.29,0-0.52-0.23-0.52-0.52v-1.5c0-0.29,0.23-0.52,0.52-0.52c0.29,0,0.52,0.23,0.52,0.52v1.5
				C128.81,98.67,128.58,98.9,128.29,98.9z"/>
		</g>
		<path class="st2" d="M115.97,88.82h-3.54c-0.28,0-0.5-0.22-0.5-0.5s0.22-0.5,0.5-0.5h2.54v-1.81c0-0.28,0.22-0.5,0.5-0.5
			s0.5,0.22,0.5,0.5V88.82z"/>
		<path class="st2" d="M115.47,85.01c-0.28,0-0.5-0.22-0.5-0.5v-1.92c0-0.28,0.22-0.5,0.5-0.5s0.5,0.22,0.5,0.5v1.92
			C115.97,84.79,115.74,85.01,115.47,85.01z"/>
		<path class="st2" d="M133.09,89.01h-3.53c-0.28,0-0.5-0.22-0.5-0.5s0.22-0.5,0.5-0.5h3.53c0.28,0,0.5,0.22,0.5,0.5
			S133.37,89.01,133.09,89.01z"/>
	</g>
	<rect x="108.63" y="76" class="st0" width="28" height="28"/>
</g>
</svg>
