<?xml version="1.0" encoding="utf-8"?>
<!-- Generator: Adobe Illustrator 24.0.3, SVG Export Plug-In . SVG Version: 6.00 Build 0)  -->
<svg version="1.1" id="Layer_1" xmlns="http://www.w3.org/2000/svg" xmlns:xlink="http://www.w3.org/1999/xlink" x="0px" y="0px"
	 viewBox="0 0 28 28" style="enable-background:new 0 0 28 28;" xml:space="preserve">
<style type="text/css">
	.st0{fill:none;}
	.st1{fill:#D52028;}
	.st2{fill:#231F20;}
	.st3{fill:#D3D3D3;}
	.st4{fill:none;stroke:#000000;stroke-linecap:round;stroke-miterlimit:10;}
	.st5{fill:#E9250C;}
	.st6{fill:#A8A8A8;}
	.st7{fill:#403C3D;}
	.st8{fill:#ABABAB;}
</style>
<g>
	<rect class="st0" width="28" height="28"/>
	<g>
		<path class="st6" d="M18.57,18.13H9.43v-5.54c0-0.41,0.18-0.81,0.49-1.09l2.7-2.46c0.78-0.71,2-0.71,2.78,0l2.7,2.46
			c0.31,0.29,0.49,0.68,0.49,1.09V18.13z"/>
		<path class="st7" d="M21.85,25.5H6.15c-0.81,0-1.47-0.65-1.47-1.45v-9.04h-1.2c-0.62,0-1.16-0.37-1.38-0.93
			c-0.22-0.56-0.07-1.18,0.38-1.58L6.19,9.1V5.2c0-0.57,0.47-1.03,1.04-1.03h1.54c0.57,0,1.04,0.46,1.04,1.03V5.8L13,2.89
			c0.56-0.51,1.44-0.51,2,0l10.52,9.6c0.44,0.4,0.59,1.03,0.38,1.58c-0.22,0.57-0.76,0.93-1.38,0.93h-1.2v9.04
			C23.33,24.85,22.67,25.5,21.85,25.5z M7.23,5.18L7.19,9.54l-4.04,3.68c-0.2,0.19-0.15,0.4-0.12,0.48c0.03,0.07,0.14,0.3,0.44,0.3
			h2.2v10.04c0,0.25,0.21,0.45,0.47,0.45h15.71c0.26,0,0.47-0.2,0.47-0.45V14.01h2.2c0.31,0,0.42-0.23,0.44-0.3
			c0.03-0.08,0.09-0.3-0.12-0.48l-10.52-9.6c-0.18-0.17-0.47-0.17-0.65,0L8.81,8.06V5.2L7.23,5.18z M19.07,21.15H8.93v-6.91L14,9.61
			l5.07,4.63V21.15z M9.93,20.15h8.15v-5.47L14,10.96l-4.07,3.72V20.15z"/>
		<path class="st7" d="M14,23.47H6.66v-3.61c0-0.28,0.22-0.5,0.5-0.5s0.5,0.22,0.5,0.5v2.61H14c0.28,0,0.5,0.22,0.5,0.5
			S14.28,23.47,14,23.47z"/>
		<path class="st7" d="M19.18,23.47h-2.33c-0.28,0-0.5-0.22-0.5-0.5s0.22-0.5,0.5-0.5h2.33c0.28,0,0.5,0.22,0.5,0.5
			S19.45,23.47,19.18,23.47z"/>
	</g>
</g>
</svg>
