<?xml version="1.0" encoding="utf-8"?>
<!-- Generator: Adobe Illustrator 24.0.3, SVG Export Plug-In . SVG Version: 6.00 Build 0)  -->
<svg version="1.1" id="Layer_1" xmlns="http://www.w3.org/2000/svg" xmlns:xlink="http://www.w3.org/1999/xlink" x="0px" y="0px"
	 viewBox="0 0 28 28" style="enable-background:new 0 0 28 28;" xml:space="preserve">
<style type="text/css">
	.st0{fill:none;}
	.st1{fill:#D52028;}
	.st2{fill:#231F20;}
	.st3{fill:#D3D3D3;}
	.st4{fill:none;stroke:#000000;stroke-linecap:round;stroke-miterlimit:10;}
	.st5{fill:#E9250C;}
	.st6{fill:#A8A8A8;}
	.st7{fill:#403C3D;}
	.st8{fill:#ABABAB;}
</style>
<g>
	<g>
		<path class="st8" d="M20.18,17.99h-5.99c-1.1,0-1.99-0.89-1.99-1.99v-5.99h5.99c1.1,0,1.99,0.89,1.99,1.99V17.99z"/>
		<g>
			<path class="st2" d="M14.52,25.5H5.15c-1.46,0-2.65-1.19-2.65-2.65v-9.37h12.02V25.5z M3.54,14.52v8.33
				c0,0.89,0.72,1.61,1.61,1.61h8.33v-9.94H3.54z"/>
			<path class="st2" d="M22.85,25.5h-9.37V13.48H25.5v9.37C25.5,24.31,24.31,25.5,22.85,25.5z M14.52,24.46h8.33
				c0.89,0,1.61-0.72,1.61-1.61v-8.33h-9.94V24.46z"/>
			<path class="st2" d="M20.01,14.52H7.99V5.15c0-1.46,1.19-2.65,2.65-2.65h6.73c1.46,0,2.65,1.19,2.65,2.65V14.52z M9.03,13.48
				h9.94V5.15c0-0.89-0.72-1.61-1.61-1.61h-6.73c-0.89,0-1.61,0.72-1.61,1.61V13.48z"/>
			<path class="st2" d="M17.16,12.51h-6.31v-1.25c0-1.34,1.09-2.42,2.42-2.42h1.47c1.34,0,2.42,1.09,2.42,2.42V12.51z M11.88,11.47
				h4.23v-0.21c0-0.76-0.62-1.38-1.38-1.38h-1.47c-0.76,0-1.38,0.62-1.38,1.38V11.47z"/>
			<path class="st2" d="M14,8.74c-1.03,0-1.86-0.83-1.86-1.86S12.97,5.02,14,5.02s1.86,0.83,1.86,1.86S15.03,8.74,14,8.74z M14,6.06
				c-0.45,0-0.82,0.37-0.82,0.82c0,0.45,0.37,0.82,0.82,0.82s0.82-0.37,0.82-0.82C14.82,6.43,14.45,6.06,14,6.06z"/>
			<path class="st2" d="M10.49,23.11H6.53c-0.85,0-1.54-0.69-1.54-1.55v-1.37c0-0.85,0.69-1.55,1.54-1.55h3.96
				c0.85,0,1.54,0.69,1.54,1.55v1.37C12.03,22.42,11.34,23.11,10.49,23.11z M6.53,19.69c-0.28,0-0.5,0.23-0.5,0.5v1.37
				c0,0.28,0.23,0.5,0.5,0.5h3.96c0.28,0,0.5-0.23,0.5-0.5v-1.37c0-0.28-0.23-0.5-0.5-0.5H6.53z"/>
			<path class="st2" d="M10.61,19.69h-4.2v-1.45c0-0.62,0.51-1.13,1.13-1.13h1.94c0.62,0,1.13,0.51,1.13,1.13V19.69z M7.45,18.65
				h2.12v-0.41c0-0.05-0.04-0.09-0.09-0.09H7.54c-0.05,0-0.09,0.04-0.09,0.09V18.65z"/>
			<path class="st2" d="M22.37,23.11h-5.42V17.1c0-0.68,0.56-1.24,1.24-1.24h2.94c0.68,0,1.24,0.56,1.24,1.24V23.11z M17.99,22.07
				h3.34V17.1c0-0.11-0.09-0.2-0.2-0.2h-2.94c-0.11,0-0.2,0.09-0.2,0.2V22.07z"/>
			<path class="st2" d="M20.41,18.39h-1.5c-0.29,0-0.52-0.23-0.52-0.52c0-0.29,0.23-0.52,0.52-0.52h1.5c0.29,0,0.52,0.23,0.52,0.52
				C20.93,18.16,20.7,18.39,20.41,18.39z"/>
			<path class="st2" d="M20.41,20h-1.5c-0.29,0-0.52-0.23-0.52-0.52c0-0.29,0.23-0.52,0.52-0.52h1.5c0.29,0,0.52,0.23,0.52,0.52
				C20.93,19.77,20.7,20,20.41,20z"/>
			<path class="st2" d="M19.66,22.9c-0.29,0-0.52-0.23-0.52-0.52v-1.5c0-0.29,0.23-0.52,0.52-0.52s0.52,0.23,0.52,0.52v1.5
				C20.18,22.67,19.95,22.9,19.66,22.9z"/>
		</g>
		<path class="st2" d="M7.33,12.82H3.79c-0.28,0-0.5-0.22-0.5-0.5s0.22-0.5,0.5-0.5h2.54v-1.81c0-0.28,0.22-0.5,0.5-0.5
			s0.5,0.22,0.5,0.5V12.82z"/>
		<path class="st2" d="M6.83,9.01c-0.28,0-0.5-0.22-0.5-0.5V6.58c0-0.28,0.22-0.5,0.5-0.5s0.5,0.22,0.5,0.5v1.92
			C7.33,8.79,7.11,9.01,6.83,9.01z"/>
		<path class="st2" d="M24.46,13.01h-3.53c-0.28,0-0.5-0.22-0.5-0.5s0.22-0.5,0.5-0.5h3.53c0.28,0,0.5,0.22,0.5,0.5
			S24.74,13.01,24.46,13.01z"/>
	</g>
	<rect class="st0" width="28" height="28"/>
</g>
</svg>
