<?xml version="1.0" encoding="utf-8"?>
<!-- Generator: Adobe Illustrator 24.0.3, SVG Export Plug-In . SVG Version: 6.00 Build 0)  -->
<svg version="1.1" id="Layer_1" xmlns="http://www.w3.org/2000/svg" xmlns:xlink="http://www.w3.org/1999/xlink" x="0px" y="0px"
	 viewBox="0 0 28 28" style="enable-background:new 0 0 28 28;" xml:space="preserve">
<style type="text/css">
	.st0{fill:none;}
	.st1{fill:#D52028;}
	.st2{fill:#231F20;}
	.st3{fill:#D3D3D3;}
	.st4{fill:none;stroke:#000000;stroke-linecap:round;stroke-miterlimit:10;}
	.st5{fill:#E9250C;}
	.st6{fill:#A8A8A8;}
	.st7{fill:#403C3D;}
	.st8{fill:#ABABAB;}
</style>
<g>
	<g>
		<path class="st8" d="M18.73,19.94h-8.03c-0.7,0-1.32-0.57-1.51-1.39l-1.74-7.66h14.53l-1.74,7.66
			C20.05,19.37,19.43,19.94,18.73,19.94z"/>
		<path class="st7" d="M20.58,24.28H3.51C2.68,24.28,2,23.6,2,22.77v-9.01c0-2.99,2.43-5.42,5.42-5.42h17.23
			c0.75,0,1.36,0.61,1.36,1.36v9.17C26,21.85,23.57,24.28,20.58,24.28z M7.42,9.34C4.98,9.34,3,11.32,3,13.75v9.01
			c0,0.28,0.23,0.51,0.51,0.51h17.08c2.44,0,4.42-1.98,4.42-4.42V9.69c0-0.2-0.16-0.36-0.36-0.36H7.42z"/>
		<path class="st7" d="M18.01,16.94h-7.12c-0.85,0-1.6-0.63-1.82-1.53L7.37,8.47h14.15l-1.69,6.94
			C19.61,16.31,18.86,16.94,18.01,16.94z M8.65,9.47l1.39,5.7c0.11,0.45,0.46,0.77,0.85,0.77h7.12c0.39,0,0.74-0.32,0.85-0.77
			l1.39-5.7H8.65z"/>
		<path class="st7" d="M16.36,22.05h-5.48v-3.4h7.29v1.59C18.17,21.24,17.35,22.05,16.36,22.05z M11.88,21.05h4.48
			c0.44,0,0.81-0.36,0.81-0.81v-0.59h-5.29V21.05z"/>
		<path class="st7" d="M20.83,9.34h-3.82l-0.69-1.94c-0.08-0.22-0.28-0.36-0.5-0.36h-2.63c-0.22,0-0.42,0.15-0.5,0.36l-0.68,1.94
			H8.21l1.38-3.92c0.36-1.01,1.31-1.7,2.36-1.7h5.13c1.06,0,2.01,0.68,2.36,1.7L20.83,9.34z M17.72,8.34h1.7l-0.91-2.58
			c-0.22-0.61-0.79-1.03-1.42-1.03h-5.13c-0.63,0-1.2,0.41-1.42,1.03L9.62,8.34h1.7l0.45-1.28c0.22-0.62,0.8-1.03,1.44-1.03h2.63
			c0.64,0,1.22,0.41,1.44,1.03L17.72,8.34z"/>
		<path class="st7" d="M4.25,18.81c-0.28,0-0.5-0.22-0.5-0.5v-2c0-0.28,0.22-0.5,0.5-0.5s0.5,0.22,0.5,0.5v2
			C4.75,18.58,4.53,18.81,4.25,18.81z"/>
		<path class="st7" d="M4.25,14.59c-0.28,0-0.5-0.22-0.5-0.5c0-1.59,0.89-3,2.17-3.43c0.26-0.09,0.54,0.05,0.63,0.32
			s-0.05,0.54-0.32,0.63c-0.88,0.29-1.49,1.31-1.49,2.48C4.75,14.36,4.53,14.59,4.25,14.59z"/>
		<path class="st7" d="M23.66,16.42c-0.28,0-0.5-0.22-0.5-0.5v-5.48c0-0.28,0.22-0.5,0.5-0.5s0.5,0.22,0.5,0.5v5.48
			C24.16,16.2,23.94,16.42,23.66,16.42z"/>
	</g>
	<rect class="st0" width="28" height="28"/>
</g>
</svg>
