<?xml version="1.0" encoding="utf-8"?>
<!-- Generator: Adobe Illustrator 24.0.3, SVG Export Plug-In . SVG Version: 6.00 Build 0)  -->
<svg version="1.1" id="Layer_1" xmlns="http://www.w3.org/2000/svg" xmlns:xlink="http://www.w3.org/1999/xlink" x="0px" y="0px"
	 viewBox="0 0 28 28" style="enable-background:new 0 0 28 28;" xml:space="preserve">
<style type="text/css">
	.st0{fill:none;}
	.st1{fill:#D52028;}
	.st2{fill:#231F20;}
	.st3{fill:#D3D3D3;}
	.st4{fill:none;stroke:#000000;stroke-linecap:round;stroke-miterlimit:10;}
	.st5{fill:#E9250C;}
	.st6{fill:#A8A8A8;}
	.st7{fill:#403C3D;}
	.st8{fill:#ABABAB;}
</style>
<g>
	<g>
		<g>
			<ellipse class="st6" cx="14" cy="13.21" rx="4.11" ry="4.3"/>
			<path class="st7" d="M14,26.11l-0.36-0.36c-0.29-0.29-7.05-7.23-7.57-14.79c-0.03-0.28-0.05-0.58-0.05-0.89
				c0-4.5,3.58-8.17,7.98-8.17s7.98,3.66,7.98,8.17c0,0.31-0.02,0.62-0.05,0.92c-0.53,7.42-7.28,14.46-7.56,14.76L14,26.11z
				 M14,2.89c-3.85,0-6.98,3.21-6.98,7.17c0,0.27,0.02,0.54,0.05,0.8C7.5,17.09,12.59,23.1,14,24.66c1.4-1.57,6.49-7.65,6.93-13.77
				c0.03-0.29,0.05-0.56,0.05-0.83C20.98,6.11,17.85,2.89,14,2.89z M14,15.24c-2.59,0-4.69-2.15-4.69-4.8s2.1-4.8,4.69-4.8
				s4.69,2.15,4.69,4.8S16.59,15.24,14,15.24z M14,6.65c-2.04,0-3.69,1.7-3.69,3.8c0,2.09,1.66,3.8,3.69,3.8s3.69-1.7,3.69-3.8
				C17.69,8.35,16.04,6.65,14,6.65z"/>
		</g>
		<path class="st7" d="M19.91,10.2c-0.25,0-0.47-0.19-0.5-0.45c-0.15-1.52-0.88-2.85-2.03-3.76c-1.14-0.9-2.61-1.3-4.14-1.15
			c-0.27,0.02-0.52-0.17-0.55-0.45c-0.03-0.27,0.17-0.52,0.45-0.55c1.78-0.18,3.51,0.3,4.85,1.36c1.37,1.08,2.23,2.66,2.41,4.45
			c0.03,0.27-0.17,0.52-0.45,0.55C19.94,10.2,19.92,10.2,19.91,10.2z"/>
		<path class="st7" d="M8.61,8.36c-0.05,0-0.11-0.01-0.16-0.03c-0.26-0.09-0.4-0.37-0.31-0.63c0.72-2.15,2.41-2.99,2.49-3.02
			c0.25-0.12,0.55-0.02,0.67,0.23c0.12,0.25,0.02,0.55-0.23,0.67C11.03,5.6,9.67,6.3,9.09,8.02C9.02,8.23,8.82,8.36,8.61,8.36z"/>
	</g>
	<rect class="st0" width="28" height="28"/>
</g>
</svg>
