<?xml version="1.0" encoding="utf-8"?>
<!-- Generator: Adobe Illustrator 24.0.3, SVG Export Plug-In . SVG Version: 6.00 Build 0)  -->
<svg version="1.1" id="Layer_1" xmlns="http://www.w3.org/2000/svg" xmlns:xlink="http://www.w3.org/1999/xlink" x="0px" y="0px"
	 viewBox="0 0 27.43 28" style="enable-background:new 0 0 27.43 28;" xml:space="preserve">
<style type="text/css">
	.st0{fill:none;}
	.st1{fill:#D52028;}
	.st2{fill:#231F20;}
	.st3{fill:#D3D3D3;}
	.st4{fill:none;stroke:#000000;stroke-linecap:round;stroke-miterlimit:10;}
	.st5{fill:#E9250C;}
	.st6{fill:#A8A8A8;}
	.st7{fill:#403C3D;}
	.st8{fill:#ABABAB;}
</style>
<g>
	<g>
		<g>
			<ellipse class="st1" cx="13.71" cy="13.21" rx="4.11" ry="4.3"/>
			<path class="st2" d="M13.72,26.11l-0.36-0.36c-0.29-0.29-7.05-7.23-7.57-14.79c-0.03-0.28-0.05-0.58-0.05-0.89
				c0-4.5,3.58-8.17,7.98-8.17s7.98,3.66,7.98,8.17c0,0.31-0.02,0.62-0.05,0.92c-0.53,7.42-7.28,14.46-7.56,14.76L13.72,26.11z
				 M13.71,2.89c-3.85,0-6.98,3.21-6.98,7.17c0,0.27,0.02,0.54,0.05,0.8c0.43,6.23,5.52,12.24,6.93,13.79
				c1.4-1.57,6.49-7.65,6.93-13.77c0.03-0.29,0.05-0.56,0.05-0.83C20.69,6.11,17.56,2.89,13.71,2.89z M13.71,15.24
				c-2.59,0-4.69-2.15-4.69-4.8s2.1-4.8,4.69-4.8s4.69,2.15,4.69,4.8S16.3,15.24,13.71,15.24z M13.71,6.65
				c-2.04,0-3.69,1.7-3.69,3.8c0,2.09,1.66,3.8,3.69,3.8s3.69-1.7,3.69-3.8C17.4,8.35,15.75,6.65,13.71,6.65z"/>
		</g>
		<path class="st2" d="M19.62,10.2c-0.25,0-0.47-0.19-0.5-0.45c-0.15-1.52-0.88-2.85-2.03-3.76c-1.14-0.9-2.61-1.3-4.14-1.15
			c-0.27,0.02-0.52-0.17-0.55-0.45c-0.03-0.27,0.17-0.52,0.45-0.55c1.78-0.18,3.51,0.3,4.85,1.36c1.37,1.08,2.23,2.66,2.41,4.45
			c0.03,0.27-0.17,0.52-0.45,0.55C19.65,10.2,19.64,10.2,19.62,10.2z"/>
		<path class="st2" d="M8.33,8.36c-0.05,0-0.11-0.01-0.16-0.03C7.9,8.25,7.76,7.97,7.85,7.71c0.72-2.15,2.41-2.99,2.49-3.02
			c0.25-0.12,0.55-0.02,0.67,0.23c0.12,0.25,0.02,0.55-0.23,0.67C10.75,5.6,9.38,6.3,8.8,8.02C8.73,8.23,8.53,8.36,8.33,8.36z"/>
	</g>
	<rect x="-0.29" class="st0" width="28" height="28"/>
</g>
</svg>
