<?xml version="1.0" encoding="utf-8"?>
<!-- Generator: Adobe Illustrator 24.0.3, SVG Export Plug-In . SVG Version: 6.00 Build 0)  -->
<svg version="1.1" id="Layer_1" xmlns="http://www.w3.org/2000/svg" xmlns:xlink="http://www.w3.org/1999/xlink" x="0px" y="0px"
	 viewBox="0 0 28 28" style="enable-background:new 0 0 28 28;" xml:space="preserve">
<style type="text/css">
	.st0{fill:none;}
	.st1{fill:#D52028;}
	.st2{fill:#231F20;}
	.st3{fill:#D3D3D3;}
	.st4{fill:none;stroke:#000000;stroke-linecap:round;stroke-miterlimit:10;}
	.st5{fill:#E9250C;}
	.st6{fill:#A8A8A8;}
	.st7{fill:#403C3D;}
	.st8{fill:#ABABAB;}
</style>
<g>
	<g>
		<path class="st8" d="M11.71,10.14c0,0,4.47,2.02,6.49,0s5.51,0,5.51,0V2.9c0,0-3.5-2.02-5.51,0c-1.44,1.44-4.11,0.83-5.54,0.36
			c-0.47-0.15-0.95,0.19-0.95,0.68V10.14z"/>
		<path class="st2" d="M21.3,26.5H2.11l0.37-0.73c0.26-0.52,0.58-1.03,0.95-1.51c0.35-0.46,0.76-1.19,0.68-2
			c-0.04-0.45,0.01-0.9,0.16-1.34c0.37-1.11,1.34-1.96,2.46-2.18c1.24-0.24,2.44,0.23,3.19,1.17V3.33h0.5
			c1.76,0,3.19,1.43,3.19,3.19v13.74c3.15,0.59,5.87,2.62,7.33,5.52L21.3,26.5z M3.78,25.5h15.85c-1.45-2.34-3.87-3.93-6.61-4.32
			l-0.43-0.06V6.52c0-1.04-0.72-1.91-1.69-2.13v16.74l-0.57,0.08c-0.13,0.02-0.26,0.04-0.39,0.06l-0.38,0.07l-0.17-0.35
			c-0.45-0.95-1.45-1.46-2.5-1.26c-0.78,0.15-1.45,0.74-1.7,1.51c-0.1,0.31-0.14,0.62-0.11,0.93c0.09,0.9-0.21,1.83-0.87,2.7
			C4.07,25.07,3.92,25.28,3.78,25.5z"/>
		<path class="st2" d="M16.97,14.01c-1.99,0-3.98-0.88-4.11-0.94l-0.29-0.13V6.41c0-0.4,0.18-0.76,0.5-0.99
			c0.32-0.23,0.73-0.29,1.1-0.17c1.08,0.36,3.74,1.05,5.03-0.24c2.26-2.27,5.96-0.17,6.12-0.08l0.25,0.14v8.4l-0.75-0.43
			c-0.03-0.02-3.19-1.8-4.91-0.08C19.13,13.75,18.05,14.01,16.97,14.01z M13.57,12.28c0.98,0.38,4.15,1.46,5.63-0.02
			c1.68-1.68,4.14-0.96,5.37-0.44V5.67c-0.78-0.38-3.22-1.39-4.66,0.05c-1.62,1.62-4.48,1-6.05,0.48c-0.09-0.03-0.17,0.01-0.2,0.03
			c-0.03,0.02-0.09,0.08-0.09,0.18V12.28z"/>
		<path class="st2" d="M8.13,18.05c-0.28,0-0.5-0.22-0.5-0.5V9.65c0-0.28,0.22-0.5,0.5-0.5s0.5,0.22,0.5,0.5v7.89
			C8.63,17.82,8.41,18.05,8.13,18.05z"/>
		<path class="st2" d="M8.13,7.71c-0.28,0-0.5-0.22-0.5-0.5V4.47c0-0.28,0.22-0.5,0.5-0.5s0.5,0.22,0.5,0.5v2.73
			C8.63,7.48,8.41,7.71,8.13,7.71z"/>
		<path class="st2" d="M22.74,25.64c-0.2,0-0.38-0.12-0.46-0.31c-1.16-2.83-3.62-4.92-6.59-5.59c-0.27-0.06-0.44-0.33-0.38-0.6
			s0.33-0.43,0.6-0.38c3.29,0.74,6.01,3.05,7.3,6.19c0.1,0.26-0.02,0.55-0.27,0.65C22.87,25.63,22.8,25.64,22.74,25.64z"/>
	</g>
	<rect class="st0" width="28" height="28"/>
</g>
</svg>
