<?xml version="1.0" encoding="utf-8"?>
<!-- Generator: Adobe Illustrator 24.0.3, SVG Export Plug-In . SVG Version: 6.00 Build 0)  -->
<svg version="1.1" id="Layer_1" xmlns="http://www.w3.org/2000/svg" xmlns:xlink="http://www.w3.org/1999/xlink" x="0px" y="0px"
	 viewBox="0 0 28 28" style="enable-background:new 0 0 28 28;" xml:space="preserve">
<style type="text/css">
	.st0{fill:none;}
	.st1{fill:#D52028;}
	.st2{fill:#231F20;}
	.st3{fill:#D3D3D3;}
	.st4{fill:none;stroke:#000000;stroke-linecap:round;stroke-miterlimit:10;}
	.st5{fill:#E9250C;}
	.st6{fill:#A8A8A8;}
	.st7{fill:#403C3D;}
	.st8{fill:#ABABAB;}
</style>
<g>
	<g>
		<path class="st8" d="M10.81,19.83h10.3c1.75,0,3.17-1.42,3.17-3.17v-6.41c0-0.74-0.6-1.34-1.34-1.34h-9.85
			c-1.75,0-3.17,1.42-3.17,3.17v6.85C9.91,19.43,10.31,19.83,10.81,19.83z"/>
		<path class="st7" d="M3.04,22.36c-0.14,0-0.28-0.03-0.42-0.09C2.24,22.1,2,21.74,2,21.32V6.04C2,5.08,2.78,4.3,3.73,4.3H17.6
			c3.19,0,5.79,2.62,5.79,5.83v6.71c0,0.96-0.78,1.74-1.73,1.74H7.59l-3.87,3.5C3.53,22.26,3.29,22.36,3.04,22.36z M3.73,5.3
			C3.33,5.3,3,5.63,3,6.04v15.28l4.2-3.73h14.46c0.4,0,0.73-0.33,0.73-0.74v-6.71c0-2.67-2.15-4.83-4.79-4.83H3.73z"/>
		<path class="st7" d="M25.03,23.7c-0.24,0-0.47-0.09-0.65-0.26l-3.4-3.08H8.53c-0.88,0-1.59-0.72-1.59-1.6v-0.6
			c0-0.28,0.22-0.5,0.5-0.5s0.5,0.22,0.5,0.5v0.6c0,0.33,0.26,0.6,0.59,0.6h12.82l3.69,3.34L25,19.86V9.2c0-0.33-0.27-0.6-0.59-0.6
			h-1.6c-0.28,0-0.5-0.22-0.5-0.5s0.22-0.5,0.5-0.5h1.6C25.29,7.6,26,8.31,26,9.2v13.53c0,0.39-0.22,0.73-0.58,0.89
			C25.29,23.67,25.16,23.7,25.03,23.7z"/>
		<g>
			<path class="st7" d="M12.7,13.34c-0.98,0-1.77-0.8-1.77-1.78s0.79-1.78,1.77-1.78c0.98,0,1.77,0.8,1.77,1.78
				S13.67,13.34,12.7,13.34z M12.7,10.78c-0.43,0-0.77,0.35-0.77,0.78s0.35,0.78,0.77,0.78c0.43,0,0.77-0.35,0.77-0.78
				S13.12,10.78,12.7,10.78z"/>
			<path class="st7" d="M7.65,13.34c-0.98,0-1.77-0.8-1.77-1.78s0.79-1.78,1.77-1.78s1.77,0.8,1.77,1.78S8.63,13.34,7.65,13.34z
				 M7.65,10.78c-0.43,0-0.77,0.35-0.77,0.78s0.35,0.78,0.77,0.78s0.77-0.35,0.77-0.78S8.08,10.78,7.65,10.78z"/>
			<path class="st7" d="M17.74,13.34c-0.98,0-1.77-0.8-1.77-1.78s0.79-1.78,1.77-1.78s1.77,0.8,1.77,1.78S18.72,13.34,17.74,13.34z
				 M17.74,10.78c-0.43,0-0.77,0.35-0.77,0.78s0.35,0.78,0.77,0.78s0.77-0.35,0.77-0.78S18.17,10.78,17.74,10.78z"/>
		</g>
		<path class="st7" d="M21.71,16.87H17.1c-0.28,0-0.5-0.22-0.5-0.5s0.22-0.5,0.5-0.5h3.62v-1.33c0-0.28,0.22-0.5,0.5-0.5
			s0.5,0.22,0.5,0.5V16.87z"/>
		<path class="st7" d="M15.2,16.87h-1.84c-0.28,0-0.5-0.22-0.5-0.5s0.22-0.5,0.5-0.5h1.84c0.28,0,0.5,0.22,0.5,0.5
			S15.48,16.87,15.2,16.87z"/>
		<path class="st7" d="M8.92,6.88H4.18c-0.28,0-0.5-0.22-0.5-0.5s0.22-0.5,0.5-0.5h4.74c0.28,0,0.5,0.22,0.5,0.5S9.2,6.88,8.92,6.88
			z"/>
	</g>
	<rect class="st0" width="28" height="28"/>
</g>
</svg>
