<svg id="Layer_1" data-name="Layer 1" xmlns="http://www.w3.org/2000/svg" viewBox="0 0 24 24"><defs><style>.cls-1{fill:#777;}</style></defs><title>upload-file-dark</title><path id="Path_98" data-name="Path 98" class="cls-1" d="M9,16.54a.39.39,0,1,1,0,.77H5.62a.38.38,0,0,1-.38-.38h0V4.17a.39.39,0,0,1,.38-.39H18.38a.38.38,0,0,1,.38.38h0V16.93a.38.38,0,0,1-.38.38H15a.39.39,0,0,1,0-.77h3v-12H6v12ZM12.64,9.2h0l2.67,2.67a.64.64,0,0,0,.91-.9L12.46,7.21h0a.65.65,0,0,0-.9,0L7.78,11a.63.63,0,0,0,0,.9h0a.67.67,0,0,0,.91,0l2.66-2.67V19.58a.65.65,0,0,0,1.29,0V9.2Z"/></svg>