<?xml version="1.0" encoding="utf-8"?>
<!-- Generator: Adobe Illustrator 24.0.3, SVG Export Plug-In . SVG Version: 6.00 Build 0)  -->
<svg version="1.1" id="Layer_1" xmlns="http://www.w3.org/2000/svg" xmlns:xlink="http://www.w3.org/1999/xlink" x="0px" y="0px"
	 viewBox="0 0 28 28" style="enable-background:new 0 0 28 28;" xml:space="preserve">
<style type="text/css">
	.st0{fill:none;}
	.st1{fill:#D52028;}
	.st2{fill:#231F20;}
	.st3{fill:#D3D3D3;}
	.st4{fill:none;stroke:#000000;stroke-linecap:round;stroke-miterlimit:10;}
	.st5{fill:#E9250C;}
	.st6{fill:#A8A8A8;}
	.st7{fill:#403C3D;}
	.st8{fill:#ABABAB;}
</style>
<g>
	<g>
		<path class="st5" d="M11.39,13.41h6.8c1.12,0,2.03,0.91,2.03,2.03v6.37H12.2c-1.57,0-2.85-1.27-2.85-2.85v-3.53
			C9.35,14.32,10.26,13.41,11.39,13.41z"/>
		<path class="st2" d="M21.97,26H7.61c-0.87,0-1.58-0.71-1.58-1.58V18.4c0-2.32,1.88-4.2,4.2-4.2h7.55c2.32,0,4.2,1.89,4.2,4.2V26z
			 M10.23,15.2c-1.76,0-3.2,1.44-3.2,3.2v6.02c0,0.32,0.26,0.58,0.58,0.58h13.37v-6.6c0-1.77-1.44-3.2-3.2-3.2H10.23z"/>
		<path class="st2" d="M14,12.83c-2.55,0-4.63-2.52-4.63-5.62v-0.5h9.27v0.5C18.63,10.31,16.55,12.83,14,12.83z M10.39,7.71
			c0.2,2.31,1.74,4.12,3.61,4.12s3.42-1.81,3.61-4.12H10.39z"/>
		<path class="st2" d="M18.13,7.71H9.87c-0.22,0-0.41-0.14-0.48-0.34C9.37,7.29,8.82,5.58,9.83,4.29c0.77-0.98,2.18-1.41,4.2-1.27
			c3.7,0.26,4.34-0.33,4.42-0.43c-0.04-0.25,0.11-0.49,0.35-0.57c0.25-0.07,0.52,0.06,0.61,0.3c0.02,0.04,0.03,0.09,0.04,0.15
			c0.13,0.62,0.69,3.56-0.24,4.72C18.94,7.53,18.57,7.71,18.13,7.71z M10.27,6.71h7.87c0.13,0,0.22-0.04,0.3-0.14
			c0.37-0.46,0.35-1.76,0.2-2.91c-0.86,0.4-2.41,0.52-4.67,0.36c-1.65-0.12-2.8,0.19-3.34,0.88C10.16,5.49,10.2,6.27,10.27,6.71z"/>
		<path class="st2" d="M11.8,23.53H9.35c-0.28,0-0.5-0.22-0.5-0.5v-4.56c0-0.28,0.22-0.5,0.5-0.5s0.5,0.22,0.5,0.5v4.06h1.95
			c0.28,0,0.5,0.22,0.5,0.5S12.08,23.53,11.8,23.53z"/>
		<path class="st2" d="M14.76,23.53h-1.19c-0.28,0-0.5-0.22-0.5-0.5s0.22-0.5,0.5-0.5h1.19c0.28,0,0.5,0.22,0.5,0.5
			S15.04,23.53,14.76,23.53z"/>
	</g>
	<rect class="st0" width="28" height="28"/>
</g>
</svg>
