<svg xmlns="http://www.w3.org/2000/svg" width="166.259" height="197.396" viewBox="0 0 166.259 197.396"><defs><style>.a{fill:#f81819;}</style></defs><g transform="translate(-33.718 -46.604)"><rect class="a" width="4.145" height="4.145" transform="translate(33.718 46.604)"/><rect class="a" width="4.145" height="4.145" transform="translate(60.737 46.604)"/><rect class="a" width="4.145" height="4.145" transform="translate(87.756 46.604)"/><rect class="a" width="4.145" height="4.145" transform="translate(114.775 46.604)"/><rect class="a" width="4.145" height="4.145" transform="translate(141.794 46.604)"/><rect class="a" width="4.145" height="4.145" transform="translate(168.813 46.604)"/><rect class="a" width="4.145" height="4.145" transform="translate(195.832 46.604)"/><rect class="a" width="4.145" height="4.145" transform="translate(33.718 68.076)"/><rect class="a" width="4.145" height="4.145" transform="translate(60.737 68.076)"/><rect class="a" width="4.145" height="4.145" transform="translate(87.756 68.076)"/><rect class="a" width="4.145" height="4.145" transform="translate(114.775 68.076)"/><rect class="a" width="4.145" height="4.145" transform="translate(141.794 68.076)"/><rect class="a" width="4.145" height="4.145" transform="translate(168.813 68.076)"/><rect class="a" width="4.145" height="4.145" transform="translate(195.832 68.076)"/><rect class="a" width="4.145" height="4.145" transform="translate(33.718 89.549)"/><rect class="a" width="4.145" height="4.145" transform="translate(60.737 89.549)"/><rect class="a" width="4.145" height="4.145" transform="translate(87.756 89.549)"/><rect class="a" width="4.145" height="4.145" transform="translate(114.775 89.549)"/><rect class="a" width="4.145" height="4.145" transform="translate(141.794 89.549)"/><rect class="a" width="4.145" height="4.145" transform="translate(168.813 89.549)"/><rect class="a" width="4.145" height="4.145" transform="translate(195.832 89.549)"/><rect class="a" width="4.145" height="4.145" transform="translate(33.718 111.021)"/><rect class="a" width="4.145" height="4.145" transform="translate(60.737 111.021)"/><rect class="a" width="4.145" height="4.145" transform="translate(87.756 111.021)"/><rect class="a" width="4.145" height="4.145" transform="translate(114.775 111.021)"/><rect class="a" width="4.145" height="4.145" transform="translate(141.794 111.021)"/><rect class="a" width="4.145" height="4.145" transform="translate(168.813 111.021)"/><rect class="a" width="4.145" height="4.145" transform="translate(195.832 111.021)"/><rect class="a" width="4.145" height="4.145" transform="translate(33.718 132.493)"/><rect class="a" width="4.145" height="4.145" transform="translate(60.737 132.493)"/><rect class="a" width="4.145" height="4.145" transform="translate(87.756 132.493)"/><rect class="a" width="4.145" height="4.145" transform="translate(114.775 132.493)"/><rect class="a" width="4.145" height="4.145" transform="translate(141.794 132.493)"/><rect class="a" width="4.145" height="4.145" transform="translate(168.813 132.493)"/><rect class="a" width="4.145" height="4.145" transform="translate(195.832 132.493)"/><rect class="a" width="4.145" height="4.145" transform="translate(33.718 153.966)"/><rect class="a" width="4.145" height="4.145" transform="translate(60.737 153.966)"/><rect class="a" width="4.145" height="4.145" transform="translate(87.756 153.966)"/><rect class="a" width="4.145" height="4.145" transform="translate(114.775 153.966)"/><rect class="a" width="4.145" height="4.145" transform="translate(141.794 153.966)"/><rect class="a" width="4.145" height="4.145" transform="translate(168.813 153.966)"/><rect class="a" width="4.145" height="4.145" transform="translate(195.832 153.966)"/><rect class="a" width="4.145" height="4.145" transform="translate(33.718 175.438)"/><rect class="a" width="4.145" height="4.145" transform="translate(60.737 175.438)"/><rect class="a" width="4.145" height="4.145" transform="translate(87.756 175.438)"/><rect class="a" width="4.145" height="4.145" transform="translate(114.775 175.438)"/><rect class="a" width="4.145" height="4.145" transform="translate(141.794 175.438)"/><rect class="a" width="4.145" height="4.145" transform="translate(168.813 175.438)"/><rect class="a" width="4.145" height="4.145" transform="translate(195.832 175.438)"/><rect class="a" width="4.145" height="4.145" transform="translate(33.718 196.911)"/><rect class="a" width="4.145" height="4.145" transform="translate(60.737 196.911)"/><rect class="a" width="4.145" height="4.145" transform="translate(87.756 196.911)"/><rect class="a" width="4.145" height="4.145" transform="translate(114.775 196.911)"/><rect class="a" width="4.145" height="4.145" transform="translate(141.794 196.911)"/><rect class="a" width="4.145" height="4.145" transform="translate(168.813 196.911)"/><rect class="a" width="4.145" height="4.145" transform="translate(195.832 196.911)"/><rect class="a" width="4.145" height="4.145" transform="translate(33.718 218.383)"/><rect class="a" width="4.145" height="4.145" transform="translate(60.737 218.383)"/><rect class="a" width="4.145" height="4.145" transform="translate(87.756 218.383)"/><rect class="a" width="4.145" height="4.145" transform="translate(114.775 218.383)"/><rect class="a" width="4.145" height="4.145" transform="translate(141.794 218.383)"/><rect class="a" width="4.145" height="4.145" transform="translate(168.813 218.383)"/><rect class="a" width="4.145" height="4.145" transform="translate(195.832 218.383)"/><rect class="a" width="4.145" height="4.145" transform="translate(33.718 239.855)"/><rect class="a" width="4.145" height="4.145" transform="translate(60.737 239.855)"/><rect class="a" width="4.145" height="4.145" transform="translate(87.756 239.855)"/><rect class="a" width="4.145" height="4.145" transform="translate(114.775 239.855)"/><rect class="a" width="4.145" height="4.145" transform="translate(141.794 239.855)"/><rect class="a" width="4.145" height="4.145" transform="translate(168.813 239.855)"/><rect class="a" width="4.145" height="4.145" transform="translate(195.832 239.855)"/></g></svg>