<svg xmlns="http://www.w3.org/2000/svg" width="285" height="81" viewBox="0 0 285 81"><defs><style>.a{fill:#1a1c21;}.b{fill:#ff1112;}.c{fill:#777;}</style></defs><g transform="translate(85.529 13.373)"><path class="a" d="M313.147,61.242c-1.344.372-2.578.759-3.834,1.054a17.119,17.119,0,0,1-20.2-11.615c-2.6-8.8,1.92-18.43,10.721-20.807,5.265-1.423,11.009-1.07,16.938-1.546V69.167h6.842V22.249c-.923-.084-1.663-.218-2.4-.207-6.6.092-13.247-.226-19.8.41-13.4,1.3-22.123,13.145-20.427,27.084C282.444,61.5,295.034,71.34,307.2,69.585c7.478-1.078,6.505-.309,6.289-7.816C313.491,61.677,313.38,61.589,313.147,61.242Zm55.861-8.5c-6.9,10.435-17.43,13.307-25.955,7.391a17.2,17.2,0,0,1-4.538-24.319c6.715-9.538,16.58-9.864,28.885-.79l5.33-3.774c-5.879-8.843-17.793-12.236-28.581-8.374-10.926,3.911-16.912,13.823-15.793,26.154.932,10.277,9.467,18.992,20.271,20.7,11.359,1.793,20.753-2.934,24.927-12.673Z" transform="translate(-183.529 -21.3)"/><path class="b" d="M174.492,22.262c0,16.815.207,33.381-.092,49.939-.137,7.585-5.2,12.152-12.869,12.745-3.874.3-7.761.447-11.952.681V78.655c6.87-.3,15.031,1.363,17.765-9.295-5.363,0-10.133.369-14.827-.072a23.448,23.448,0,0,1-21.3-24.371,23.993,23.993,0,0,1,22.554-23.043c3.455-.181,6.921-.332,10.377-.271C167.477,21.663,170.8,22.014,174.492,22.262Zm-8.208,40.866c.493-.966.672-1.154.672-1.342.047-10.177.142-20.355-.008-30.53-.012-.787-1.691-2.11-2.7-2.216a63.89,63.89,0,0,0-8.759-.1c-8.082.265-15.072,6.341-16.076,13.889-1.2,9.012,3.167,16.764,11.59,18.872C156.02,62.957,161.407,62.721,166.284,63.128Z" transform="translate(-131.205 -21.401)"/><path class="a" d="M213.443,85.581h-6.892V22.873a2.744,2.744,0,0,1,1-.374c6.919.063,13.872-.248,20.748.34a23.481,23.481,0,0,1-1.159,46.829,89.3,89.3,0,0,1-10.055.05c-2.778-.166-3.9.6-3.707,3.581C213.635,77.269,213.443,81.267,213.443,85.581Zm.215-22.229c5.034-.239,9.919.018,14.618-.8a16.114,16.114,0,0,0,13.451-16.61c-.251-8.146-5.72-14.64-14.024-15.736-4.537-.6-9.218-.107-14.045-.107Z" transform="translate(-157.563 -21.71)"/><g transform="translate(191.019 1.105)"><path class="a" d="M429.226,31.452a4.226,4.226,0,1,1,4.226-4.226A4.231,4.231,0,0,1,429.226,31.452Zm0-7.8a3.576,3.576,0,1,0,3.576,3.576A3.58,3.58,0,0,0,429.226,23.65Z" transform="translate(-425 -23)"/><g transform="translate(2.578 2.184)"><path class="a" d="M428.965,26.359h1.908a1.88,1.88,0,0,1,.778.14.994.994,0,0,1,.581.992,1.112,1.112,0,0,1-.156.617,1.127,1.127,0,0,1-.436.386.854.854,0,0,1,.37.263.943.943,0,0,1,.138.529l.02.563a1.7,1.7,0,0,0,.04.357.35.35,0,0,0,.183.257v.094h-.7a.49.49,0,0,1-.045-.14,2.623,2.623,0,0,1-.029-.332l-.034-.7a.59.59,0,0,0-.3-.551,1.189,1.189,0,0,0-.5-.077h-1.257v1.8h-.569Zm1.847,1.923a1.049,1.049,0,0,0,.615-.16.66.66,0,0,0,.226-.577.624.624,0,0,0-.317-.612,1.01,1.01,0,0,0-.453-.086h-1.35v1.434Z" transform="translate(-428.965 -26.359)"/></g></g></g><path class="c" d="M88.735,0c.138,6.174.965,12.434.192,18.493-.589,4.618-.566,8.694,1.654,12.726,6.355,11.546,4.1,11.043-2.374,18.02-2.991,3.224-5.865,6.554-8.763,9.8L75.8,55.216C74.951,64.883,73.53,73.695,65.775,81c.066-5.54,2.4-11.156-5.411-13.025.953-7.518,2.066-14.942,2.773-22.4a12.687,12.687,0,0,1,5.37-9.809c3.548-2.523,4.489-5.9,3.314-9.936-1.274-4.377-.032-7.908,3.081-11.179C79.43,9.89,83.7,4.894,88.085,0Z" transform="translate(-21.117)"/><path class="c" d="M6.5,0c4.613,5.127,9.151,10.323,13.869,15.353a9.834,9.834,0,0,1,2.6,9.813c-1.227,4.568-.333,8.213,3.649,11.048a11.315,11.315,0,0,1,4.8,8.712c.732,7.672,1.885,15.3,2.831,22.695-6.053,2.871-6.3,3.518-5.3,12.331C23.69,78.2,18.21,64.711,19.358,55.027L14.979,59.05,0,41.365V40.073c1.382-3,2.657-6.062,4.172-9C6.274,27,6.332,23,5.718,18.4c-.8-6.022.013-12.258.133-18.4Z"/></svg>