<svg xmlns="http://www.w3.org/2000/svg" width="415.172" height="118.782" viewBox="0 0 415.172 118.782"><defs><style>.a{fill:#fff;}.b{fill:#f91819;}.c{fill:#f9f9f9;}</style></defs><g transform="translate(-405 -233)"><path class="a" d="M732.969,312.53c-1.959.542-3.758,1.107-5.59,1.536a24.958,24.958,0,0,1-29.45-16.933c-3.8-12.832,2.8-26.869,15.629-30.334,7.676-2.074,16.051-1.559,24.694-2.254v59.538h9.974v-68.4c-1.346-.122-2.425-.318-3.5-.3-9.626.134-19.313-.329-28.864.6-19.541,1.894-32.253,19.163-29.78,39.485,2.123,17.443,20.477,31.789,38.22,29.23,10.9-1.572,9.484-.45,9.169-11.394C733.47,313.165,733.308,313.036,732.969,312.53Zm81.439-12.389c-10.065,15.213-25.411,19.4-37.839,10.775-11.918-8.268-14.817-23.807-6.615-35.455,9.79-13.905,24.172-14.38,42.111-1.152l7.771-5.5c-8.571-12.892-25.941-17.838-41.668-12.209-15.929,5.7-24.655,20.152-23.025,38.13,1.358,14.982,13.8,27.689,29.552,30.175,16.56,2.614,30.256-4.277,36.341-18.476Z" transform="translate(-14.634 -1.11)"/><path class="b" d="M599.312,255.569c0,24.514.3,48.666-.135,72.8-.2,11.058-7.578,17.717-18.761,18.58-5.648.437-11.314.652-17.425.992V337.784c10.015-.44,21.914,1.988,25.9-13.551-7.818,0-14.773.538-21.616-.1A34.184,34.184,0,0,1,536.223,288.6,34.98,34.98,0,0,1,569.1,255.005c5.037-.264,10.089-.484,15.128-.4C589.084,254.7,593.93,255.209,599.312,255.569Zm-11.966,59.578c.719-1.409.979-1.683.98-1.956.069-14.837.207-29.675-.011-44.509-.017-1.148-2.465-3.076-3.933-3.23a93.14,93.14,0,0,0-12.77-.146c-11.783.386-21.973,9.244-23.437,20.249-1.748,13.139,4.617,24.44,16.9,27.513C572.382,314.9,580.236,314.555,587.346,315.147Z" transform="translate(-6.838 -1.125)"/><g transform="translate(405 233)"><path class="c" d="M506.726,233c.2,9.053,1.407,18.233.281,27.119-.859,6.773-.826,12.749,2.411,18.662,9.265,16.931,5.975,16.195-3.462,26.425-4.36,4.727-8.551,9.612-12.776,14.375l-5.316-5.609c-1.235,14.175-3.306,27.1-14.613,37.81.1-8.124,3.495-16.359-7.888-19.1,1.39-11.025,3.011-21.912,4.043-32.855.576-6.111,2.909-10.866,7.83-14.384,5.173-3.7,6.544-8.649,4.831-14.571-1.858-6.418-.046-11.6,4.492-16.393,6.6-6.975,12.831-14.3,19.218-21.478Z" transform="translate(-408.146 -233)"/><path class="c" d="M414.479,233c6.725,7.519,13.341,15.139,20.219,22.516,3.941,4.228,5.22,9.028,3.787,14.392-1.789,6.7-.485,12.045,5.32,16.2,4.315,3.091,6.473,7.283,6.994,12.777,1.067,11.251,2.747,22.445,4.127,33.283-8.824,4.211-9.183,5.159-7.725,18.084-7.664-2.564-15.652-22.352-13.978-36.554l-6.384,5.9L405,293.664v-1.9c2.014-4.406,3.874-8.89,6.082-13.2,3.065-5.979,3.15-11.848,2.255-18.584-1.173-8.831.019-17.977.194-26.988Z" transform="translate(-405 -233)"/><path class="c" d="M621.6,347.477H611.551v-91.42a4,4,0,0,1,1.461-.545c10.086.092,20.224-.361,30.249.5,17.788,1.519,31.3,17.077,30.955,34.654a34.423,34.423,0,0,1-32.645,33.618,130.193,130.193,0,0,1-14.659.073c-4.05-.242-5.682.882-5.4,5.221C621.878,335.36,621.6,341.188,621.6,347.477Zm.313-32.407c7.338-.348,14.461.026,21.311-1.167a23.492,23.492,0,0,0,19.61-24.216c-.366-11.876-8.339-21.344-20.445-22.942-6.615-.873-13.439-.156-20.476-.156Z" transform="translate(-415.765 -234.171)"/><path class="c" d="M732.969,312.59c.338.506.5.635.5.769.315,10.944,1.733,9.823-9.169,11.394-17.744,2.559-36.1-11.787-38.22-29.23-2.473-20.322,10.239-37.591,29.78-39.485,9.551-.926,19.238-.464,28.864-.6,1.075-.015,2.154.18,3.5.3v68.4h-9.974V264.605c-8.643.695-17.017.18-24.694,2.254-12.83,3.466-19.426,17.5-15.629,30.334a24.958,24.958,0,0,0,29.45,16.933C729.211,313.7,731.01,313.132,732.969,312.59Z" transform="translate(-419.634 -234.17)"/><path class="c" d="M818.212,300.141l6.628,6.286c-6.085,14.2-19.781,21.09-36.341,18.476-15.75-2.486-28.194-15.193-29.552-30.175-1.63-17.978,7.1-32.427,23.025-38.129,15.727-5.629,33.1-.683,41.668,12.209l-7.771,5.5c-17.94-13.229-32.322-12.754-42.111,1.152-8.2,11.648-5.3,27.186,6.615,35.454C792.8,319.541,808.147,315.354,818.212,300.141Z" transform="translate(-423.437 -234.11)"/></g><g transform="translate(807.85 254.801)"><path class="c" d="M836.161,268.322a6.161,6.161,0,1,1,6.161-6.161A6.168,6.168,0,0,1,836.161,268.322Zm0-11.375a5.213,5.213,0,1,0,5.213,5.213A5.219,5.219,0,0,0,836.161,256.948Z" transform="translate(-830 -256)"/><g transform="translate(3.758 3.184)"><path class="c" d="M833.965,259.359h2.781a2.742,2.742,0,0,1,1.134.2,1.449,1.449,0,0,1,.846,1.445,1.621,1.621,0,0,1-.227.9,1.644,1.644,0,0,1-.635.563,1.242,1.242,0,0,1,.539.383,1.375,1.375,0,0,1,.2.771l.03.821a2.487,2.487,0,0,0,.059.52.51.51,0,0,0,.266.374v.138h-1.016a.718.718,0,0,1-.066-.2,3.845,3.845,0,0,1-.043-.483l-.05-1.02a.861.861,0,0,0-.432-.8,1.736,1.736,0,0,0-.725-.113h-1.832v2.624h-.829Zm2.693,2.8a1.529,1.529,0,0,0,.9-.233.962.962,0,0,0,.33-.841.911.911,0,0,0-.462-.892,1.471,1.471,0,0,0-.661-.125h-1.968v2.091Z" transform="translate(-833.965 -259.359)"/></g></g></g></svg>